<svg id="svg" version="1.1" xmlns="http://www.w3.org/2000/svg" xmlns:xlink="http://www.w3.org/1999/xlink" width="400" height="400" viewBox="0, 0, 400,400"><g id="svgg"><path id="path0" d="M114.600 122.858 C 99.386 125.623,89.862 131.363,84.832 140.801 C 79.795 150.252,80.324 163.791,86.122 173.800 C 88.298 177.558,85.857 177.200,109.313 177.200 L 130.102 177.200 122.751 172.150 C 104.777 159.801,100.114 154.865,98.769 146.762 C 95.232 125.456,129.279 117.656,146.929 135.728 C 152.988 141.932,159.531 154.868,161.774 165.079 C 162.255 167.271,162.614 167.253,168.600 164.737 C 171.680 163.443,176.180 161.557,178.600 160.546 C 184.660 158.016,184.506 158.545,180.678 153.362 C 169.657 138.442,158.168 129.462,144.697 125.240 C 141.162 124.132,139.522 123.753,134.233 122.818 C 131.396 122.317,117.422 122.345,114.600 122.858 M199.422 126.364 C 199.299 126.564,199.282 126.969,199.386 127.264 C 200.162 129.471,201.542 159.033,201.591 174.500 L 201.600 177.200 202.796 177.200 L 203.993 177.200 204.096 155.900 C 204.196 135.522,204.232 134.600,204.936 134.600 C 205.627 134.600,207.250 137.312,214.872 151.200 C 215.536 152.410,219.048 158.755,222.677 165.300 L 229.274 177.200 247.224 177.200 C 264.218 177.200,265.159 177.162,264.887 176.494 C 264.729 176.106,263.802 174.351,262.827 172.594 C 260.547 168.488,246.574 143.240,241.192 133.500 L 237.047 126.000 218.347 126.000 C 207.548 126.000,199.552 126.154,199.422 126.364 M315.383 128.900 C 316.254 137.394,316.457 142.180,316.659 158.900 L 316.880 177.200 318.440 177.200 L 320.000 177.200 320.013 164.900 C 320.021 158.135,320.294 148.370,320.622 143.200 C 320.949 138.030,321.329 132.045,321.466 129.900 L 321.716 126.000 318.401 126.000 L 315.085 126.000 315.383 128.900 M113.200 199.600 C 113.200 202.000,113.360 203.600,113.600 203.600 C 113.840 203.600,114.000 202.000,114.000 199.600 C 114.000 197.200,113.840 195.600,113.600 195.600 C 113.360 195.600,113.200 197.200,113.200 199.600 M127.600 196.285 C 127.600 196.766,127.887 197.029,128.413 197.029 C 129.410 197.029,129.310 195.871,128.295 195.675 C 127.836 195.587,127.600 195.794,127.600 196.285 M135.300 196.198 C 134.635 196.954,134.662 197.029,135.600 197.029 C 136.101 197.029,136.400 196.762,136.400 196.314 C 136.400 195.463,135.986 195.419,135.300 196.198 M170.000 199.600 C 170.000 202.533,170.133 203.600,170.500 203.601 C 170.875 203.602,170.968 202.603,170.873 199.601 C 170.709 194.396,170.000 194.395,170.000 199.600 M187.600 199.600 C 187.600 202.533,187.733 203.600,188.100 203.600 C 188.451 203.600,188.577 202.915,188.523 201.300 C 188.480 200.035,188.435 198.235,188.423 197.300 C 188.410 196.365,188.220 195.600,188.000 195.600 C 187.760 195.600,187.600 197.200,187.600 199.600 M221.200 196.400 C 221.200 196.934,221.467 197.200,222.003 197.200 C 222.707 197.200,222.745 197.100,222.307 196.400 C 222.032 195.960,221.671 195.600,221.504 195.600 C 221.337 195.600,221.200 195.960,221.200 196.400 M300.612 196.917 C 300.441 197.312,300.413 197.747,300.551 197.884 C 300.957 198.290,301.284 197.720,301.097 196.931 C 300.932 196.233,300.910 196.232,300.612 196.917 M305.200 201.400 C 305.200 201.996,305.372 202.341,305.600 202.200 C 305.820 202.064,306.000 201.704,306.000 201.400 C 306.000 201.096,305.820 200.736,305.600 200.600 C 305.372 200.459,305.200 200.804,305.200 201.400 M226.978 202.035 C 226.831 202.274,226.910 202.670,227.155 202.915 C 227.482 203.242,227.600 203.126,227.600 202.480 C 227.600 201.514,227.392 201.365,226.978 202.035 M144.000 220.542 C 144.000 220.621,146.385 222.492,149.300 224.701 C 168.812 239.487,173.201 247.977,168.823 262.470 C 164.930 275.357,144.840 280.728,128.085 273.361 C 113.012 266.733,98.983 245.608,95.039 223.600 C 94.530 220.760,94.879 220.657,83.444 227.017 C 77.590 230.272,72.800 233.090,72.800 233.277 C 72.800 233.882,76.040 240.088,78.503 244.200 C 90.088 263.544,105.971 275.341,125.000 278.734 C 126.320 278.969,128.570 279.370,130.000 279.626 C 142.647 281.884,160.534 279.001,170.257 273.136 C 186.396 263.402,192.201 241.375,183.495 222.900 L 182.316 220.400 163.158 220.400 C 152.621 220.400,144.000 220.464,144.000 220.542 M201.590 225.500 C 201.557 243.176,200.328 270.698,199.366 275.300 L 199.136 276.400 202.800 276.400 L 206.464 276.400 206.233 275.300 C 205.266 270.676,204.044 243.639,204.011 226.100 L 204.000 220.400 202.800 220.400 L 201.600 220.400 201.590 225.500 M253.600 220.782 C 253.600 220.993,254.140 222.081,254.800 223.200 C 255.460 224.319,256.000 225.309,256.000 225.400 C 256.000 225.491,256.507 226.428,257.127 227.482 C 257.747 228.537,258.944 230.660,259.787 232.200 C 260.630 233.740,265.857 243.190,271.402 253.200 C 276.947 263.210,282.095 272.523,282.842 273.895 L 284.200 276.391 303.011 276.395 L 321.821 276.400 321.524 272.900 C 320.579 261.795,320.004 247.356,320.002 234.700 L 320.000 220.400 318.400 220.400 L 316.800 220.400 316.800 244.400 C 316.800 259.903,316.660 268.400,316.406 268.400 C 315.877 268.400,314.754 266.589,310.580 259.000 C 308.644 255.480,306.761 252.060,306.397 251.400 C 306.033 250.740,302.706 244.710,299.004 238.000 C 295.302 231.290,291.574 224.585,290.719 223.100 L 289.165 220.400 271.382 220.400 C 260.340 220.400,253.600 220.545,253.600 220.782 " stroke="none" fill="#f6f6f5" fill-rule="evenodd"></path><path id="path1" d="M0.000 200.000 L 0.000 400.000 200.000 400.000 L 400.000 400.000 400.000 200.000 L 400.000 0.000 200.000 0.000 L 0.000 0.000 0.000 200.000 M134.000 122.184 C 153.457 124.816,169.170 135.466,182.945 155.358 C 184.519 157.632,184.762 158.207,184.327 158.633 C 183.617 159.328,162.708 167.931,162.195 167.739 C 161.973 167.656,161.377 166.105,160.872 164.294 C 154.015 139.704,142.100 127.334,124.477 126.509 C 107.266 125.704,96.393 135.452,99.821 148.616 C 101.636 155.585,106.893 160.627,125.315 173.065 C 128.442 175.176,131.085 176.980,131.188 177.073 C 132.009 177.815,127.880 177.988,109.316 177.994 L 88.432 178.000 87.405 176.900 C 80.568 169.576,78.780 151.809,83.826 141.319 C 90.707 127.014,111.391 119.125,134.000 122.184 M237.300 125.700 C 237.659 125.975,240.327 130.520,243.229 135.800 C 246.131 141.080,252.147 151.970,256.599 160.000 C 266.805 178.411,266.204 177.225,265.538 177.647 C 264.352 178.398,229.383 178.069,228.723 177.300 C 228.392 176.915,225.644 172.100,222.615 166.600 C 208.808 141.525,205.469 135.600,205.146 135.600 C 204.956 135.600,204.800 145.042,204.800 156.592 L 204.800 177.585 203.800 177.836 C 203.250 177.974,202.350 177.974,201.800 177.836 L 200.800 177.585 200.791 167.692 C 200.781 156.066,200.274 143.965,199.357 133.455 C 198.800 127.068,198.784 125.856,199.250 125.561 C 200.176 124.974,236.526 125.107,237.300 125.700 M321.961 125.567 C 322.408 125.850,322.464 126.601,322.237 129.261 C 321.240 140.949,320.816 151.099,320.809 163.457 C 320.799 178.831,320.932 178.008,318.467 177.994 C 316.493 177.983,316.534 178.297,316.241 161.038 C 315.996 146.543,315.340 133.462,314.566 127.630 C 314.341 125.935,314.406 125.651,315.054 125.485 C 316.385 125.142,321.384 125.202,321.961 125.567 M99.381 194.864 C 101.351 195.762,100.323 197.335,98.157 196.737 C 95.382 195.971,95.220 197.320,97.951 198.455 C 100.810 199.643,101.555 201.551,99.803 203.197 C 97.984 204.906,93.005 204.162,93.282 202.223 C 93.412 201.316,93.964 201.278,95.868 202.042 C 96.904 202.458,97.252 202.455,97.773 202.023 C 98.572 201.360,98.024 200.591,96.484 200.212 C 94.456 199.714,93.600 198.885,93.600 197.420 C 93.600 194.962,96.643 193.617,99.381 194.864 M114.400 199.200 C 114.400 203.733,114.356 204.000,113.600 204.000 C 112.844 204.000,112.800 203.733,112.800 199.200 C 112.800 194.667,112.844 194.400,113.600 194.400 C 114.356 194.400,114.400 194.667,114.400 199.200 M130.492 197.004 C 132.009 200.081,132.090 200.081,133.731 196.990 C 134.763 195.046,135.187 194.600,136.000 194.600 L 137.000 194.600 137.113 199.300 L 137.225 204.000 136.232 204.000 C 135.292 204.000,135.232 203.864,135.119 201.500 L 135.000 199.000 133.996 201.000 C 132.594 203.791,131.641 203.849,130.408 201.218 C 129.174 198.583,128.800 198.672,128.800 201.600 C 128.800 203.733,128.711 204.000,128.000 204.000 C 127.244 204.000,127.200 203.733,127.200 199.200 L 127.200 194.400 128.204 194.400 C 129.041 194.400,129.420 194.832,130.492 197.004 M155.726 194.865 C 159.061 196.642,157.839 201.046,153.887 201.491 C 152.125 201.690,152.000 201.780,152.000 202.852 C 152.000 203.861,151.855 204.000,150.800 204.000 L 149.600 204.000 149.600 199.467 C 149.600 196.973,149.720 194.813,149.867 194.667 C 150.315 194.218,154.797 194.370,155.726 194.865 M171.286 198.300 L 171.400 202.200 173.300 202.322 C 176.766 202.544,175.985 204.000,172.400 204.000 L 169.600 204.000 169.600 199.200 C 169.600 194.696,169.648 194.400,170.386 194.400 C 171.105 194.400,171.181 194.730,171.286 198.300 M193.800 195.400 C 193.800 196.092,193.494 196.216,191.536 196.319 C 189.944 196.402,189.201 196.621,189.034 197.055 C 188.633 198.102,189.163 198.400,191.424 198.400 C 193.292 198.400,193.600 198.507,193.600 199.157 C 193.600 200.071,192.851 200.400,190.767 200.400 C 189.905 200.400,189.173 200.580,189.140 200.800 C 188.943 202.115,189.084 202.206,191.596 202.400 C 196.133 202.749,195.533 204.000,190.829 204.000 L 187.200 204.000 187.200 199.184 L 187.200 194.368 190.500 194.484 C 193.495 194.589,193.800 194.674,193.800 195.400 M223.968 197.072 C 226.222 200.114,226.400 200.141,226.400 197.449 C 226.400 195.183,227.064 194.109,228.195 194.543 C 228.687 194.731,228.800 195.639,228.800 199.387 L 228.800 204.000 227.646 204.000 C 226.696 204.000,226.182 203.575,224.746 201.604 C 222.576 198.626,222.400 198.626,222.400 201.600 L 222.400 204.000 221.200 204.000 L 220.000 204.000 220.000 199.467 C 220.000 196.973,220.128 194.806,220.284 194.650 C 220.989 193.944,222.279 194.793,223.968 197.072 M248.278 195.182 C 250.248 196.384,250.937 197.707,250.697 199.833 C 250.015 205.892,240.800 205.634,240.800 199.555 C 240.800 195.367,244.772 193.045,248.278 195.182 M269.367 195.057 C 269.687 195.893,269.532 196.033,267.920 196.362 L 266.600 196.631 266.485 200.315 C 266.373 203.917,266.348 204.000,265.400 204.000 C 264.452 204.000,264.427 203.918,264.315 200.300 L 264.200 196.600 262.900 196.475 C 261.823 196.371,261.600 196.182,261.600 195.375 C 261.600 194.111,268.889 193.813,269.367 195.057 M287.800 195.400 C 287.800 196.089,287.467 196.228,285.400 196.400 C 282.002 196.683,281.795 198.131,285.125 198.322 C 288.308 198.504,288.104 200.137,284.875 200.322 C 281.431 200.519,281.942 202.150,285.500 202.319 C 287.672 202.423,288.000 202.541,288.000 203.219 C 288.000 203.936,287.704 204.000,284.400 204.000 L 280.800 204.000 280.800 199.467 C 280.800 194.054,280.581 194.342,284.582 194.485 C 287.495 194.589,287.800 194.676,287.800 195.400 M305.374 194.790 C 307.279 195.514,306.756 196.958,304.691 196.674 C 302.508 196.375,301.446 196.945,302.576 197.808 C 303.004 198.133,303.652 198.400,304.018 198.400 C 306.098 198.400,307.449 201.511,306.095 203.183 C 304.784 204.801,299.200 204.163,299.200 202.394 C 299.200 201.364,300.273 201.114,301.645 201.823 C 302.932 202.489,304.400 202.274,304.400 201.420 C 304.400 201.130,303.427 200.498,302.239 200.016 C 299.348 198.842,298.766 197.135,300.658 195.381 C 301.794 194.329,303.574 194.106,305.374 194.790 M152.156 196.971 C 152.035 197.285,151.996 197.960,152.068 198.471 C 152.284 199.995,155.559 199.491,155.594 197.929 C 155.622 196.701,152.584 195.855,152.156 196.971 M243.827 197.337 C 242.531 198.633,242.514 200.151,243.782 201.418 C 246.336 203.972,250.403 200.419,248.100 197.646 C 246.948 196.258,245.043 196.120,243.827 197.337 M182.187 219.850 C 185.141 220.984,188.205 233.219,187.883 242.600 C 187.059 266.642,169.811 280.792,141.320 280.798 C 113.233 280.805,93.596 269.755,78.456 245.423 C 74.123 238.459,71.695 233.332,72.401 232.637 C 73.441 231.614,94.090 220.349,94.581 220.537 C 94.838 220.636,95.462 222.581,95.966 224.859 C 101.338 249.117,115.068 268.244,131.117 273.825 C 148.969 280.033,166.101 273.302,169.152 258.880 C 171.720 246.741,166.249 238.109,146.800 223.611 C 142.369 220.309,142.496 220.437,143.203 219.989 C 143.864 219.572,181.114 219.439,182.187 219.850 M204.167 219.843 C 204.725 220.057,204.800 221.536,204.802 232.343 C 204.805 245.949,205.283 258.162,206.234 268.928 C 207.019 277.808,207.272 277.200,202.800 277.200 C 198.320 277.200,198.573 277.826,199.374 268.720 C 200.322 257.938,200.781 246.154,200.791 232.333 C 200.798 222.901,200.916 220.020,201.300 219.865 C 202.024 219.573,203.435 219.562,204.167 219.843 M289.698 220.300 C 290.268 220.943,294.410 228.338,309.972 256.500 C 313.102 262.165,315.829 266.800,316.032 266.800 C 316.252 266.800,316.400 257.402,316.400 243.443 C 316.400 217.964,316.249 219.600,318.600 219.600 C 320.926 219.600,320.799 218.631,320.809 236.543 C 320.816 251.340,321.186 260.821,322.237 273.139 C 322.464 275.799,322.408 276.550,321.961 276.833 C 321.276 277.266,284.796 277.312,284.116 276.880 C 283.706 276.620,271.736 255.282,256.635 227.895 C 254.420 223.877,252.817 220.532,252.946 220.195 C 253.325 219.209,288.818 219.310,289.698 220.300 " stroke="none" fill="#241c24" fill-rule="evenodd"></path><path id="path2" d="M116.400 122.012 C 115.393 122.176,116.451 122.214,118.800 122.099 C 121.110 121.985,123.075 121.827,123.167 121.746 C 123.447 121.500,118.312 121.702,116.400 122.012 M127.100 121.889 C 127.815 121.978,128.985 121.978,129.700 121.889 C 130.415 121.801,129.830 121.728,128.400 121.728 C 126.970 121.728,126.385 121.801,127.100 121.889 M131.900 122.282 C 132.395 122.378,133.205 122.378,133.700 122.282 C 134.195 122.187,133.790 122.109,132.800 122.109 C 131.810 122.109,131.405 122.187,131.900 122.282 M111.200 122.800 C 110.408 123.054,110.367 123.120,111.000 123.120 C 111.440 123.120,112.250 122.976,112.800 122.800 C 113.592 122.546,113.633 122.480,113.000 122.480 C 112.560 122.480,111.750 122.624,111.200 122.800 M136.400 122.800 C 136.950 122.976,137.760 123.120,138.200 123.120 C 138.833 123.120,138.792 123.054,138.000 122.800 C 137.450 122.624,136.640 122.480,136.200 122.480 C 135.567 122.480,135.608 122.546,136.400 122.800 M107.800 123.600 C 107.296 123.817,107.222 123.944,107.600 123.944 C 107.930 123.944,108.560 123.789,109.000 123.600 C 109.504 123.383,109.578 123.256,109.200 123.256 C 108.870 123.256,108.240 123.411,107.800 123.600 M140.200 123.600 C 140.640 123.789,141.360 123.938,141.800 123.932 C 142.443 123.923,142.404 123.857,141.600 123.600 C 140.232 123.162,139.181 123.162,140.200 123.600 M143.200 124.382 C 143.530 124.605,144.145 124.791,144.567 124.794 C 145.590 124.802,145.271 124.573,143.800 124.244 C 142.924 124.048,142.762 124.085,143.200 124.382 M208.928 125.500 C 214.168 125.563,222.628 125.563,227.728 125.500 C 232.827 125.436,228.540 125.385,218.200 125.385 C 207.860 125.385,203.687 125.437,208.928 125.500 M317.111 125.493 C 318.051 125.578,319.491 125.577,320.311 125.491 C 321.130 125.405,320.360 125.336,318.600 125.337 C 316.840 125.339,316.170 125.409,317.111 125.493 M198.914 127.400 C 198.917 128.500,198.995 128.903,199.087 128.295 C 199.179 127.686,199.177 126.786,199.082 126.295 C 198.987 125.803,198.911 126.300,198.914 127.400 M314.628 128.500 C 315.000 132.404,315.287 132.517,315.128 128.698 C 315.058 126.997,314.854 125.604,314.676 125.603 C 314.497 125.601,314.476 126.905,314.628 128.500 M121.500 126.289 C 122.215 126.378,123.385 126.378,124.100 126.289 C 124.815 126.201,124.230 126.128,122.800 126.128 C 121.370 126.128,120.785 126.201,121.500 126.289 M115.000 126.810 C 114.466 127.047,114.798 127.086,116.000 126.927 C 116.990 126.796,117.875 126.624,117.967 126.544 C 118.314 126.243,115.764 126.472,115.000 126.810 M128.600 126.800 C 130.292 127.231,131.744 127.231,130.400 126.800 C 129.850 126.624,128.950 126.483,128.400 126.487 C 127.502 126.494,127.522 126.526,128.600 126.800 M151.809 127.513 C 152.447 128.059,154.470 128.837,154.226 128.442 C 154.103 128.242,153.420 127.876,152.710 127.629 C 151.999 127.381,151.594 127.329,151.809 127.513 M321.884 129.200 C 321.732 130.410,321.629 132.120,321.657 133.000 C 321.686 133.940,321.849 133.280,322.053 131.400 C 322.449 127.744,322.305 125.864,321.884 129.200 M239.000 128.800 C 239.341 129.460,239.711 130.000,239.821 130.000 C 239.931 130.000,239.741 129.460,239.400 128.800 C 239.059 128.140,238.689 127.600,238.579 127.600 C 238.469 127.600,238.659 128.140,239.000 128.800 M94.468 129.428 C 93.302 130.214,91.144 132.037,89.674 133.479 L 87.000 136.102 89.735 133.632 C 91.240 132.273,93.445 130.514,94.635 129.724 C 96.527 128.468,97.086 128.000,96.695 128.000 C 96.637 128.000,95.635 128.643,94.468 129.428 M156.600 129.887 C 157.310 130.604,163.316 134.511,163.051 134.083 C 162.911 133.856,161.582 132.876,160.098 131.906 C 156.892 129.811,156.036 129.317,156.600 129.887 M140.168 130.892 C 140.591 131.171,142.070 132.345,143.456 133.500 C 144.842 134.655,146.084 135.600,146.217 135.600 C 146.797 135.600,141.755 131.482,140.400 130.850 C 139.554 130.455,139.518 130.462,140.168 130.892 M240.006 130.450 C 239.997 130.805,242.033 134.400,242.242 134.400 C 242.338 134.400,242.060 133.725,241.624 132.900 C 240.678 131.111,240.015 130.106,240.006 130.450 M103.578 132.700 L 102.200 134.200 103.700 132.822 C 105.096 131.538,105.384 131.200,105.078 131.200 C 105.012 131.200,104.337 131.875,103.578 132.700 M199.489 134.600 C 199.608 136.580,199.772 138.275,199.853 138.367 C 200.124 138.674,199.944 134.619,199.606 132.800 C 199.370 131.531,199.336 132.063,199.489 134.600 M315.499 138.200 C 315.615 140.620,315.775 142.675,315.855 142.767 C 316.120 143.071,315.935 137.833,315.609 135.800 C 315.398 134.484,315.360 135.306,315.499 138.200 M204.800 135.000 C 204.800 135.110,205.160 135.560,205.600 136.000 C 206.499 136.899,206.657 136.572,205.843 135.500 C 205.336 134.831,204.800 134.575,204.800 135.000 M243.000 136.000 C 243.341 136.660,243.711 137.200,243.821 137.200 C 243.931 137.200,243.741 136.660,243.400 136.000 C 243.059 135.340,242.689 134.800,242.579 134.800 C 242.469 134.800,242.659 135.340,243.000 136.000 M165.619 136.259 C 165.630 136.446,166.640 137.410,167.865 138.400 C 169.089 139.390,171.897 142.225,174.105 144.700 C 176.314 147.175,178.217 149.200,178.335 149.200 C 178.453 149.200,178.100 148.705,177.550 148.100 C 177.000 147.495,175.320 145.600,173.816 143.889 C 171.016 140.703,165.585 135.646,165.619 136.259 M86.309 137.100 C 85.527 137.989,83.198 142.145,83.207 142.632 C 83.211 142.835,83.724 142.076,84.347 140.947 C 84.970 139.817,85.879 138.332,86.367 137.647 C 87.331 136.293,87.297 135.976,86.309 137.100 M148.608 138.500 C 149.467 139.545,150.234 140.400,150.312 140.400 C 150.598 140.400,148.861 138.178,147.966 137.400 C 147.460 136.960,147.749 137.455,148.608 138.500 M321.088 139.760 C 320.930 141.499,320.826 143.929,320.857 145.160 C 320.893 146.550,321.045 145.653,321.258 142.800 C 321.447 140.270,321.551 137.840,321.489 137.400 C 321.427 136.960,321.247 138.022,321.088 139.760 M207.000 138.400 C 207.341 139.060,207.711 139.600,207.821 139.600 C 207.931 139.600,207.741 139.060,207.400 138.400 C 207.059 137.740,206.689 137.200,206.579 137.200 C 206.469 137.200,206.659 137.740,207.000 138.400 M99.449 139.415 C 99.312 139.773,99.215 140.366,99.234 140.733 C 99.253 141.100,99.427 140.869,99.621 140.220 C 99.998 138.958,99.865 138.333,99.449 139.415 M245.400 140.400 C 245.741 141.060,246.111 141.600,246.221 141.600 C 246.331 141.600,246.141 141.060,245.800 140.400 C 245.459 139.740,245.089 139.200,244.979 139.200 C 244.869 139.200,245.059 139.740,245.400 140.400 M200.323 147.800 C 200.425 151.540,200.574 154.675,200.654 154.767 C 200.916 155.066,200.729 145.457,200.429 143.200 C 200.268 141.990,200.220 144.060,200.323 147.800 M209.400 142.800 C 209.741 143.460,210.111 144.000,210.221 144.000 C 210.331 144.000,210.141 143.460,209.800 142.800 C 209.459 142.140,209.089 141.600,208.979 141.600 C 208.869 141.600,209.059 142.140,209.400 142.800 M247.800 144.800 C 248.141 145.460,248.511 146.000,248.621 146.000 C 248.731 146.000,248.541 145.460,248.200 144.800 C 247.859 144.140,247.489 143.600,247.379 143.600 C 247.269 143.600,247.459 144.140,247.800 144.800 M154.284 147.386 C 155.097 149.028,155.827 150.307,155.906 150.227 C 156.085 150.049,153.265 144.400,152.998 144.400 C 152.893 144.400,153.471 145.744,154.284 147.386 M211.000 145.600 C 211.341 146.260,211.711 146.800,211.821 146.800 C 211.931 146.800,211.741 146.260,211.400 145.600 C 211.059 144.940,210.689 144.400,210.579 144.400 C 210.469 144.400,210.659 144.940,211.000 145.600 M81.829 146.229 C 81.681 146.815,81.638 147.372,81.732 147.466 C 81.827 147.560,82.024 147.158,82.171 146.571 C 82.319 145.985,82.362 145.428,82.268 145.334 C 82.173 145.240,81.976 145.642,81.829 146.229 M249.400 147.600 C 249.741 148.260,250.111 148.800,250.221 148.800 C 250.331 148.800,250.141 148.260,249.800 147.600 C 249.459 146.940,249.089 146.400,248.979 146.400 C 248.869 146.400,249.059 146.940,249.400 147.600 M316.158 151.800 C 316.158 154.880,316.221 156.087,316.297 154.482 C 316.373 152.878,316.373 150.358,316.296 148.882 C 316.219 147.407,316.157 148.720,316.158 151.800 M99.206 147.633 C 99.209 148.165,99.389 148.870,99.606 149.200 C 99.882 149.622,99.923 149.385,99.742 148.400 C 99.425 146.675,99.198 146.349,99.206 147.633 M81.000 150.400 C 80.845 151.528,80.802 152.536,80.906 152.639 C 81.009 152.742,81.216 151.900,81.367 150.767 C 81.517 149.634,81.559 148.626,81.461 148.528 C 81.363 148.429,81.155 149.272,81.000 150.400 M213.400 150.000 C 213.741 150.660,214.111 151.200,214.221 151.200 C 214.331 151.200,214.141 150.660,213.800 150.000 C 213.459 149.340,213.089 148.800,212.979 148.800 C 212.869 148.800,213.059 149.340,213.400 150.000 M179.169 150.600 C 184.478 158.161,184.431 158.080,183.932 158.747 C 183.484 159.346,183.502 159.347,184.144 158.764 C 184.864 158.109,182.646 154.306,179.383 150.600 L 178.327 149.400 179.169 150.600 M251.800 152.000 C 252.141 152.660,252.511 153.200,252.621 153.200 C 252.731 153.200,252.541 152.660,252.200 152.000 C 251.859 151.340,251.489 150.800,251.379 150.800 C 251.269 150.800,251.459 151.340,251.800 152.000 M215.000 152.800 C 215.341 153.460,215.711 154.000,215.821 154.000 C 215.931 154.000,215.741 153.460,215.400 152.800 C 215.059 152.140,214.689 151.600,214.579 151.600 C 214.469 151.600,214.659 152.140,215.000 152.800 M100.815 152.200 C 100.817 152.420,101.186 153.050,101.636 153.600 C 102.179 154.264,102.315 154.331,102.040 153.800 C 101.366 152.495,100.812 151.772,100.815 152.200 M320.397 165.000 L 320.200 177.400 318.600 177.643 L 317.000 177.886 318.400 177.937 C 320.909 178.028,320.822 178.518,320.703 164.973 L 320.594 152.600 320.397 165.000 M252.815 153.800 C 252.817 154.020,253.186 154.650,253.636 155.200 C 254.179 155.864,254.315 155.931,254.040 155.400 C 253.366 154.095,252.812 153.372,252.815 153.800 M157.851 155.174 C 158.227 156.639,159.171 158.686,159.155 158.000 C 159.147 157.670,158.794 156.680,158.371 155.800 C 157.948 154.920,157.714 154.638,157.851 155.174 M104.080 156.772 C 105.057 157.967,106.833 159.742,108.028 160.718 L 110.200 162.492 108.005 160.463 C 106.798 159.347,105.021 157.571,104.057 156.517 L 102.304 154.600 104.080 156.772 M217.400 157.200 C 217.741 157.860,218.111 158.400,218.221 158.400 C 218.331 158.400,218.141 157.860,217.800 157.200 C 217.459 156.540,217.089 156.000,216.979 156.000 C 216.869 156.000,217.059 156.540,217.400 157.200 M316.574 167.600 C 316.574 173.210,316.630 175.505,316.699 172.700 C 316.768 169.895,316.768 165.305,316.699 162.500 C 316.630 159.695,316.574 161.990,316.574 167.600 M255.800 159.200 C 256.141 159.860,256.511 160.400,256.621 160.400 C 256.731 160.400,256.541 159.860,256.200 159.200 C 255.859 158.540,255.489 158.000,255.379 158.000 C 255.269 158.000,255.459 158.540,255.800 159.200 M80.893 159.800 C 80.894 160.460,81.032 161.540,81.200 162.200 C 81.623 163.863,81.642 162.226,81.223 160.200 C 80.945 158.855,80.892 158.791,80.893 159.800 M219.786 161.500 C 220.135 162.215,220.506 162.800,220.610 162.800 C 221.008 162.800,220.752 162.163,219.967 161.200 L 219.152 160.200 219.786 161.500 M256.806 160.850 C 256.797 161.205,258.833 164.800,259.042 164.800 C 259.138 164.800,258.860 164.125,258.424 163.300 C 257.478 161.511,256.815 160.506,256.806 160.850 M175.300 162.234 C 174.585 162.546,174.000 162.894,174.000 163.007 C 174.000 163.215,176.806 162.127,177.146 161.787 C 177.486 161.447,176.620 161.657,175.300 162.234 M221.840 165.202 C 222.439 166.303,222.993 167.140,223.071 167.063 C 223.243 166.890,221.208 163.200,220.941 163.200 C 220.836 163.200,221.240 164.101,221.840 165.202 M81.656 164.400 C 81.656 164.730,81.811 165.360,82.000 165.800 C 82.217 166.304,82.344 166.378,82.344 166.000 C 82.344 165.670,82.189 165.040,82.000 164.600 C 81.783 164.096,81.656 164.022,81.656 164.400 M112.579 164.366 C 112.880 164.852,116.400 167.332,116.400 167.057 C 116.400 166.957,115.481 166.215,114.358 165.408 C 113.235 164.601,112.435 164.132,112.579 164.366 M259.800 166.400 C 260.141 167.060,260.511 167.600,260.621 167.600 C 260.731 167.600,260.541 167.060,260.200 166.400 C 259.859 165.740,259.489 165.200,259.379 165.200 C 259.269 165.200,259.459 165.740,259.800 166.400 M161.600 167.213 C 161.600 167.693,162.625 167.956,163.173 167.617 C 163.509 167.409,163.332 167.242,162.637 167.109 C 162.067 167.000,161.600 167.047,161.600 167.213 M116.943 167.508 C 117.112 167.781,118.363 168.747,119.725 169.656 C 122.613 171.583,121.996 170.847,118.818 168.573 C 117.618 167.714,116.774 167.235,116.943 167.508 M223.800 168.800 C 224.141 169.460,224.511 170.000,224.621 170.000 C 224.731 170.000,224.541 169.460,224.200 168.800 C 223.859 168.140,223.489 167.600,223.379 167.600 C 223.269 167.600,223.459 168.140,223.800 168.800 M260.806 168.050 C 260.797 168.405,262.833 172.000,263.042 172.000 C 263.138 172.000,262.860 171.325,262.424 170.500 C 261.478 168.711,260.815 167.706,260.806 168.050 M225.840 172.402 C 226.439 173.503,226.993 174.340,227.071 174.263 C 227.243 174.090,225.208 170.400,224.941 170.400 C 224.836 170.400,225.240 171.301,225.840 172.402 M263.209 172.700 C 263.214 172.865,263.585 173.450,264.033 174.000 L 264.848 175.000 264.214 173.700 C 263.611 172.465,263.189 172.045,263.209 172.700 M85.641 174.300 C 86.628 175.933,88.203 178.044,87.954 177.400 C 87.667 176.659,85.133 172.800,84.933 172.800 C 84.824 172.800,85.143 173.475,85.641 174.300 M227.763 175.929 C 228.877 178.083,228.211 178.016,247.446 177.900 L 265.400 177.792 247.287 177.696 L 229.173 177.600 228.347 176.200 C 227.359 174.526,226.936 174.329,227.763 175.929 M98.928 177.900 C 104.829 177.962,114.369 177.962,120.128 177.900 C 125.888 177.837,121.060 177.786,109.400 177.786 C 97.740 177.786,93.028 177.837,98.928 177.900 M202.100 177.876 C 202.485 177.976,203.115 177.976,203.500 177.876 C 203.885 177.775,203.570 177.693,202.800 177.693 C 202.030 177.693,201.715 177.775,202.100 177.876 M94.522 195.429 L 93.400 196.458 94.674 195.573 C 96.799 194.096,100.869 195.020,99.563 196.683 C 99.050 197.337,99.062 197.351,99.700 196.851 C 100.680 196.082,100.572 195.407,99.381 194.864 C 97.652 194.076,95.757 194.296,94.522 195.429 M112.800 194.714 C 112.800 194.887,113.160 195.029,113.600 195.029 C 114.040 195.029,114.400 194.887,114.400 194.714 C 114.400 194.541,114.040 194.400,113.600 194.400 C 113.160 194.400,112.800 194.541,112.800 194.714 M127.200 194.787 C 127.200 195.001,127.499 195.060,127.864 194.920 C 128.308 194.750,128.848 195.052,129.497 195.833 L 130.465 197.000 129.822 195.700 C 129.206 194.454,127.200 193.756,127.200 194.787 M134.912 194.881 C 134.683 195.166,134.020 196.345,133.441 197.500 C 132.224 199.924,131.887 200.058,131.195 198.387 C 130.918 197.720,130.613 197.253,130.517 197.350 C 130.289 197.578,131.476 199.876,131.984 200.190 C 132.199 200.323,133.012 199.164,133.792 197.616 C 136.029 193.173,136.738 193.557,136.906 199.300 L 137.038 203.800 137.019 199.200 C 136.999 194.451,136.342 193.103,134.912 194.881 M149.867 194.667 C 149.497 195.036,149.529 204.000,149.900 204.000 C 150.065 204.001,150.200 201.976,150.200 199.500 L 150.200 195.000 152.935 195.000 C 158.341 195.000,159.112 200.365,153.816 201.122 C 152.010 201.380,150.039 204.000,151.651 204.000 C 151.843 204.000,152.000 203.483,152.000 202.852 C 152.000 201.780,152.125 201.690,153.887 201.491 C 157.839 201.046,159.061 196.642,155.726 194.865 C 154.797 194.370,150.315 194.218,149.867 194.667 M169.600 194.714 C 169.600 194.887,169.960 195.029,170.400 195.029 C 170.840 195.029,171.200 194.887,171.200 194.714 C 171.200 194.541,170.840 194.400,170.400 194.400 C 169.960 194.400,169.600 194.541,169.600 194.714 M187.199 194.684 C 187.199 194.858,188.639 194.941,190.399 194.870 C 193.059 194.761,193.600 194.842,193.600 195.350 C 193.600 195.811,193.046 195.989,191.332 196.080 C 189.728 196.165,189.016 196.376,188.901 196.800 C 188.788 197.219,188.842 197.256,189.078 196.924 C 189.265 196.662,190.404 196.392,191.609 196.324 C 195.624 196.097,194.742 194.633,190.500 194.484 C 188.685 194.420,187.200 194.510,187.199 194.684 M220.267 194.667 C 219.897 195.036,219.929 204.000,220.300 204.001 C 220.465 204.001,220.544 202.020,220.475 199.598 C 220.337 194.741,220.730 193.942,222.515 195.451 L 223.400 196.200 222.638 195.300 C 221.895 194.422,220.803 194.131,220.267 194.667 M226.892 194.868 C 226.621 195.139,226.400 196.314,226.400 197.480 C 226.400 198.705,226.221 199.600,225.976 199.600 C 225.743 199.600,225.664 199.780,225.800 200.000 C 226.403 200.975,226.800 200.224,226.806 198.100 C 226.813 195.539,227.290 194.330,228.010 195.050 C 228.296 195.336,228.409 197.004,228.327 199.748 C 228.257 202.087,228.341 204.001,228.513 204.001 C 228.685 204.000,228.775 201.887,228.713 199.305 C 228.597 194.471,228.216 193.544,226.892 194.868 M243.381 194.962 C 242.710 195.254,241.855 195.961,241.481 196.533 C 240.370 198.229,240.703 198.246,242.154 196.567 C 243.424 195.097,243.646 195.000,245.716 195.000 C 246.930 195.000,247.716 194.868,247.462 194.706 C 246.745 194.250,244.726 194.376,243.381 194.962 M261.599 194.700 C 261.599 194.865,263.219 194.942,265.199 194.872 C 268.260 194.762,268.800 194.837,268.800 195.372 C 268.800 195.803,268.424 196.000,267.600 196.000 C 266.940 196.000,266.400 196.161,266.400 196.358 C 266.400 196.694,269.045 196.289,269.441 195.892 C 269.539 195.794,269.505 195.419,269.367 195.057 C 269.102 194.367,261.601 194.022,261.599 194.700 M281.082 194.652 C 280.927 194.807,280.803 195.128,280.806 195.367 C 280.810 195.611,280.956 195.574,281.141 195.281 C 281.375 194.913,282.334 194.797,284.435 194.881 C 287.950 195.022,288.241 195.711,284.908 196.000 C 282.745 196.187,282.592 196.269,282.473 197.300 C 282.404 197.905,282.508 198.400,282.705 198.400 C 282.902 198.400,283.049 197.995,283.032 197.500 C 283.003 196.684,283.225 196.581,285.400 196.400 C 287.467 196.228,287.800 196.089,287.800 195.400 C 287.800 194.579,281.820 193.913,281.082 194.652 M301.443 194.730 C 301.270 195.010,301.648 195.077,302.565 194.928 C 303.326 194.805,304.541 194.910,305.265 195.163 C 306.269 195.513,306.471 195.511,306.114 195.154 C 305.486 194.526,301.777 194.189,301.443 194.730 M261.600 196.038 C 261.600 196.209,262.185 196.406,262.900 196.475 L 264.200 196.600 264.431 200.400 L 264.663 204.200 264.631 200.206 L 264.600 196.212 263.100 195.969 C 262.275 195.835,261.600 195.866,261.600 196.038 M96.000 196.600 C 95.461 197.249,96.053 198.400,96.925 198.400 C 97.161 198.400,97.021 198.157,96.615 197.861 C 95.528 197.065,96.209 196.301,97.738 196.601 C 98.682 196.786,98.849 196.743,98.400 196.430 C 97.545 195.835,96.578 195.903,96.000 196.600 M151.759 196.562 C 151.310 197.732,151.782 199.790,152.532 199.932 C 154.990 200.398,156.931 198.121,155.241 196.753 C 154.150 195.869,152.069 195.755,151.759 196.562 M244.200 196.483 C 241.929 197.786,242.093 202.400,244.411 202.400 C 244.605 202.400,244.322 201.958,243.782 201.418 C 241.837 199.473,243.440 196.028,246.046 196.549 C 246.784 196.697,247.147 196.637,246.996 196.394 C 246.671 195.868,245.191 195.915,244.200 196.483 M302.000 196.600 C 301.461 197.249,302.053 198.400,302.925 198.400 C 303.161 198.400,303.004 198.133,302.576 197.808 C 301.574 197.043,302.480 196.280,304.000 196.608 C 304.764 196.773,304.858 196.729,304.400 196.418 C 303.538 195.835,302.575 195.908,302.000 196.600 M154.971 197.029 C 156.113 198.170,155.454 199.244,153.555 199.335 C 152.157 199.402,151.590 198.445,152.156 196.971 C 152.448 196.208,154.187 196.244,154.971 197.029 M223.940 197.516 C 224.433 198.209,225.044 198.904,225.297 199.060 C 225.550 199.217,225.354 198.777,224.860 198.084 C 224.367 197.391,223.756 196.696,223.503 196.540 C 223.250 196.383,223.446 196.823,223.940 197.516 M250.509 199.200 C 250.509 200.190,250.587 200.595,250.682 200.100 C 250.778 199.605,250.778 198.795,250.682 198.300 C 250.587 197.805,250.509 198.210,250.509 199.200 M93.600 198.315 C 93.600 198.896,95.533 200.201,95.879 199.854 C 96.019 199.714,95.930 199.600,95.682 199.600 C 95.434 199.600,94.864 199.206,94.416 198.725 C 93.967 198.243,93.600 198.059,93.600 198.315 M189.061 198.500 C 189.163 198.665,190.123 198.800,191.194 198.800 C 192.712 198.800,193.182 198.954,193.324 199.500 C 193.467 200.048,193.517 200.012,193.554 199.336 C 193.595 198.556,193.368 198.458,191.237 198.336 C 189.937 198.261,188.958 198.335,189.061 198.500 M98.664 199.174 C 100.614 200.363,100.657 203.600,98.724 203.600 C 98.473 203.600,98.387 203.721,98.535 203.868 C 98.881 204.215,100.800 202.420,100.800 201.749 C 100.800 200.706,99.882 199.275,98.937 198.844 C 97.415 198.151,97.271 198.324,98.664 199.174 M128.800 198.800 C 128.800 199.020,128.968 199.200,129.173 199.200 C 129.378 199.200,129.665 199.574,129.810 200.030 C 129.954 200.487,130.153 200.780,130.251 200.682 C 130.515 200.418,129.528 198.400,129.136 198.400 C 128.951 198.400,128.800 198.580,128.800 198.800 M134.673 198.660 C 134.250 199.084,134.351 199.677,134.800 199.400 C 135.050 199.246,135.200 200.063,135.200 201.576 C 135.200 202.909,135.335 204.000,135.500 204.001 C 135.877 204.002,135.637 199.109,135.240 198.693 C 135.079 198.525,134.824 198.510,134.673 198.660 M221.934 201.179 C 221.860 202.731,221.935 204.001,222.100 204.001 C 222.265 204.000,222.400 202.920,222.400 201.600 C 222.400 198.859,222.465 198.802,223.870 200.300 L 224.901 201.400 223.916 200.022 C 222.379 197.872,222.082 198.045,221.934 201.179 M283.800 198.603 C 284.734 198.928,287.200 199.013,287.200 198.720 C 287.200 198.544,286.345 198.414,285.300 198.432 C 284.255 198.449,283.580 198.526,283.800 198.603 M300.000 198.754 C 300.000 199.083,302.009 200.124,302.226 199.907 C 302.293 199.840,301.820 199.482,301.174 199.111 C 300.528 198.740,300.000 198.580,300.000 198.754 M284.800 199.965 C 282.765 200.182,282.590 200.283,282.473 201.300 C 282.404 201.905,282.514 202.400,282.718 202.400 C 282.922 202.400,283.003 201.950,282.898 201.400 C 282.714 200.440,282.788 200.400,284.730 200.400 C 285.842 200.400,286.864 200.220,287.000 200.000 C 287.136 199.780,287.192 199.629,287.124 199.665 C 287.056 199.701,286.010 199.836,284.800 199.965 M188.806 200.700 C 188.810 201.166,188.913 201.242,189.113 200.928 C 189.278 200.668,190.220 200.384,191.207 200.297 L 193.000 200.140 190.900 200.070 C 189.138 200.011,188.801 200.113,188.806 200.700 M303.500 200.488 C 304.483 200.963,304.691 201.816,303.900 202.135 C 303.508 202.293,303.511 202.344,303.913 202.368 C 304.795 202.423,304.990 201.128,304.189 200.542 C 303.781 200.244,303.256 200.012,303.024 200.027 C 302.791 200.042,303.005 200.249,303.500 200.488 M240.812 200.869 C 240.799 201.617,243.009 204.000,243.716 204.000 C 243.965 204.000,243.609 203.505,242.923 202.900 C 242.237 202.295,241.484 201.440,241.250 201.000 C 240.902 200.345,240.822 200.321,240.812 200.869 M247.714 201.480 C 247.227 201.986,246.974 202.400,247.152 202.400 C 247.542 202.400,248.998 200.845,248.764 200.677 C 248.674 200.613,248.201 200.974,247.714 201.480 M93.350 201.787 C 93.226 202.110,93.217 202.605,93.331 202.887 C 93.444 203.169,93.551 202.976,93.568 202.457 C 93.591 201.784,93.772 201.584,94.200 201.757 C 95.713 202.369,96.116 202.404,95.200 201.842 C 93.936 201.066,93.630 201.057,93.350 201.787 M130.867 202.100 C 131.121 202.705,131.637 203.200,132.015 203.200 C 132.782 203.200,133.852 202.118,133.466 201.733 C 133.330 201.597,133.105 201.781,132.967 202.143 C 132.614 203.063,131.813 202.961,131.052 201.900 C 130.416 201.013,130.413 201.015,130.867 202.100 M248.800 202.764 C 248.030 203.514,247.762 203.935,248.204 203.701 C 249.079 203.237,250.630 201.655,250.364 201.498 C 250.274 201.444,249.570 202.014,248.800 202.764 M299.700 201.465 C 298.842 201.811,299.152 203.050,300.219 203.536 C 301.670 204.197,302.008 204.081,300.700 203.371 C 300.095 203.043,299.600 202.611,299.600 202.411 C 299.600 201.784,300.449 201.489,300.915 201.955 C 301.160 202.200,301.639 202.394,301.980 202.386 C 302.373 202.377,302.235 202.163,301.600 201.800 C 300.513 201.179,300.441 201.166,299.700 201.465 M225.543 202.700 C 226.044 203.415,226.539 204.000,226.641 204.000 C 226.987 204.000,226.050 202.540,225.337 201.967 C 224.836 201.565,224.896 201.778,225.543 202.700 M193.497 202.872 C 193.770 203.203,193.875 203.592,193.730 203.737 C 193.585 203.882,193.690 204.000,193.963 204.000 C 194.645 204.000,194.341 202.713,193.600 202.468 C 193.109 202.306,193.090 202.379,193.497 202.872 M287.040 202.706 C 287.282 202.868,287.583 203.270,287.708 203.600 C 287.861 204.001,287.947 203.901,287.968 203.300 C 287.990 202.695,287.770 202.402,287.300 202.406 C 286.868 202.410,286.769 202.525,287.040 202.706 M153.100 219.900 C 158.435 219.963,167.165 219.963,172.500 219.900 C 177.835 219.837,173.470 219.785,162.800 219.785 C 152.130 219.785,147.765 219.837,153.100 219.900 M202.100 219.876 C 202.485 219.976,203.115 219.976,203.500 219.876 C 203.885 219.775,203.570 219.693,202.800 219.693 C 202.030 219.693,201.715 219.775,202.100 219.876 M262.100 219.900 C 267.105 219.963,275.295 219.963,280.300 219.900 C 285.305 219.836,281.210 219.784,271.200 219.784 C 261.190 219.784,257.095 219.836,262.100 219.900 M318.600 219.957 L 320.200 220.200 320.407 235.000 L 320.615 249.800 320.707 234.943 C 320.810 218.541,320.968 219.536,318.267 219.657 C 317.113 219.708,317.143 219.735,318.600 219.957 M142.800 220.322 C 142.800 220.502,143.340 221.049,144.000 221.537 C 144.660 222.025,145.200 222.358,145.200 222.278 C 145.200 222.198,144.660 221.651,144.000 221.063 C 143.340 220.475,142.800 220.141,142.800 220.322 M316.497 243.343 C 316.412 264.079,316.328 266.858,315.800 266.655 C 315.027 266.359,315.024 266.956,315.795 267.596 C 316.794 268.425,316.812 267.937,316.701 243.400 L 316.593 219.800 316.497 243.343 M92.992 220.995 C 92.252 221.572,92.274 221.581,93.329 221.129 C 94.256 220.732,94.529 220.749,94.859 221.223 C 95.204 221.718,95.238 221.715,95.097 221.200 C 94.868 220.358,93.927 220.266,92.992 220.995 M290.415 221.800 C 290.417 222.020,290.786 222.650,291.236 223.200 C 291.779 223.864,291.915 223.931,291.640 223.400 C 290.966 222.095,290.412 221.372,290.415 221.800 M89.000 223.200 C 88.340 223.637,87.980 223.992,88.200 223.988 C 88.601 223.982,90.776 222.423,90.400 222.412 C 90.290 222.408,89.660 222.763,89.000 223.200 M95.268 223.000 C 95.262 223.440,95.411 224.160,95.600 224.600 C 96.038 225.619,96.038 224.568,95.600 223.200 C 95.343 222.396,95.277 222.357,95.268 223.000 M146.790 223.473 C 147.555 224.093,150.357 226.339,153.017 228.465 C 155.677 230.591,159.635 234.191,161.814 236.465 C 163.992 238.739,165.200 239.860,164.497 238.955 C 161.598 235.221,151.922 226.649,146.769 223.249 L 145.400 222.346 146.790 223.473 M254.200 223.600 C 254.541 224.260,254.911 224.800,255.021 224.800 C 255.131 224.800,254.941 224.260,254.600 223.600 C 254.259 222.940,253.889 222.400,253.779 222.400 C 253.669 222.400,253.859 222.940,254.200 223.600 M86.300 224.629 C 84.805 225.440,84.896 225.778,86.400 225.000 C 87.060 224.659,87.600 224.294,87.600 224.190 C 87.600 223.932,87.557 223.947,86.300 224.629 M255.800 226.400 C 256.141 227.060,256.511 227.600,256.621 227.600 C 256.731 227.600,256.541 227.060,256.200 226.400 C 255.859 225.740,255.489 225.200,255.379 225.200 C 255.269 225.200,255.459 225.740,255.800 226.400 M96.006 226.633 C 96.009 227.055,96.195 227.670,96.418 228.000 C 96.715 228.438,96.752 228.276,96.556 227.400 C 96.227 225.929,95.998 225.610,96.006 226.633 M293.400 227.200 C 293.741 227.860,294.111 228.400,294.221 228.400 C 294.331 228.400,294.141 227.860,293.800 227.200 C 293.459 226.540,293.089 226.000,292.979 226.000 C 292.869 226.000,293.059 226.540,293.400 227.200 M81.900 227.029 C 81.295 227.357,80.800 227.710,80.800 227.813 C 80.800 228.199,81.432 227.957,82.400 227.200 C 83.589 226.270,83.411 226.209,81.900 227.029 M79.100 228.629 C 77.605 229.440,77.696 229.778,79.200 229.000 C 79.860 228.659,80.400 228.294,80.400 228.190 C 80.400 227.932,80.357 227.947,79.100 228.629 M294.406 228.850 C 294.397 229.205,296.433 232.800,296.642 232.800 C 296.738 232.800,296.460 232.125,296.024 231.300 C 295.078 229.511,294.415 228.506,294.406 228.850 M186.468 229.800 C 186.462 230.240,186.611 230.960,186.800 231.400 C 187.238 232.419,187.238 231.368,186.800 230.000 C 186.543 229.196,186.477 229.157,186.468 229.800 M258.200 230.800 C 258.541 231.460,258.911 232.000,259.021 232.000 C 259.131 232.000,258.941 231.460,258.600 230.800 C 258.259 230.140,257.889 229.600,257.779 229.600 C 257.669 229.600,257.859 230.140,258.200 230.800 M74.700 231.029 C 73.205 231.840,73.296 232.178,74.800 231.400 C 75.460 231.059,76.000 230.694,76.000 230.590 C 76.000 230.332,75.957 230.347,74.700 231.029 M72.374 232.631 C 71.879 233.228,75.280 241.253,75.806 240.728 C 75.896 240.637,75.142 238.967,74.130 237.016 C 72.608 234.085,72.368 233.343,72.748 232.735 C 73.310 231.834,73.087 231.772,72.374 232.631 M187.474 235.400 C 187.598 236.940,187.766 238.275,187.849 238.367 C 188.127 238.674,187.958 235.817,187.602 234.200 C 187.331 232.970,187.302 233.248,187.474 235.400 M297.400 234.400 C 297.741 235.060,298.111 235.600,298.221 235.600 C 298.331 235.600,298.141 235.060,297.800 234.400 C 297.459 233.740,297.089 233.200,296.979 233.200 C 296.869 233.200,297.059 233.740,297.400 234.400 M260.586 235.100 C 260.935 235.815,261.306 236.400,261.410 236.400 C 261.808 236.400,261.552 235.763,260.767 234.800 L 259.952 233.800 260.586 235.100 M298.406 236.050 C 298.397 236.405,300.433 240.000,300.642 240.000 C 300.738 240.000,300.460 239.325,300.024 238.500 C 299.078 236.711,298.415 235.706,298.406 236.050 M262.640 238.802 C 263.239 239.903,263.793 240.740,263.871 240.663 C 264.043 240.490,262.008 236.800,261.741 236.800 C 261.636 236.800,262.040 237.701,262.640 238.802 M301.400 241.600 C 301.741 242.260,302.111 242.800,302.221 242.800 C 302.331 242.800,302.141 242.260,301.800 241.600 C 301.459 240.940,301.089 240.400,300.979 240.400 C 300.869 240.400,301.059 240.940,301.400 241.600 M166.430 242.200 C 166.924 243.080,167.500 243.980,167.710 244.200 C 168.309 244.828,166.939 242.294,166.196 241.400 C 165.830 240.960,165.935 241.320,166.430 242.200 M76.600 242.400 C 76.941 243.060,77.311 243.600,77.421 243.600 C 77.531 243.600,77.341 243.060,77.000 242.400 C 76.659 241.740,76.289 241.200,76.179 241.200 C 76.069 241.200,76.259 241.740,76.600 242.400 M264.600 242.400 C 264.941 243.060,265.311 243.600,265.421 243.600 C 265.531 243.600,265.341 243.060,265.000 242.400 C 264.659 241.740,264.289 241.200,264.179 241.200 C 264.069 241.200,264.259 241.740,264.600 242.400 M101.634 243.000 C 101.634 243.220,101.978 244.030,102.400 244.800 C 102.822 245.570,103.166 246.020,103.166 245.800 C 103.166 245.580,102.822 244.770,102.400 244.000 C 101.978 243.230,101.634 242.780,101.634 243.000 M187.458 245.959 C 187.307 247.586,187.261 248.995,187.357 249.090 C 187.606 249.339,188.121 244.163,187.910 243.530 C 187.813 243.239,187.610 244.332,187.458 245.959 M302.406 243.250 C 302.397 243.605,304.433 247.200,304.642 247.200 C 304.738 247.200,304.460 246.525,304.024 245.700 C 303.078 243.911,302.415 242.906,302.406 243.250 M77.811 244.400 C 79.576 247.621,86.557 257.155,87.641 257.825 C 87.888 257.978,87.019 256.774,85.710 255.151 C 84.402 253.528,82.198 250.490,80.812 248.400 C 78.492 244.900,76.984 242.889,77.811 244.400 M266.640 246.002 C 267.239 247.103,267.793 247.940,267.871 247.863 C 268.043 247.690,266.008 244.000,265.741 244.000 C 265.636 244.000,266.040 244.901,266.640 246.002 M169.044 247.800 C 169.373 249.271,169.602 249.590,169.594 248.567 C 169.591 248.145,169.405 247.530,169.182 247.200 C 168.885 246.762,168.848 246.924,169.044 247.800 M200.485 251.440 C 200.438 253.661,200.318 256.901,200.218 258.640 L 200.037 261.800 200.424 258.800 C 200.637 257.150,200.757 253.910,200.691 251.600 L 200.570 247.400 200.485 251.440 M104.600 249.200 C 104.941 249.860,105.311 250.400,105.421 250.400 C 105.531 250.400,105.341 249.860,105.000 249.200 C 104.659 248.540,104.289 248.000,104.179 248.000 C 104.069 248.000,104.259 248.540,104.600 249.200 M204.843 252.433 C 204.867 254.945,205.018 258.080,205.179 259.400 C 205.340 260.720,205.386 258.740,205.280 255.000 C 205.063 247.252,204.778 245.581,204.843 252.433 M268.600 249.600 C 268.941 250.260,269.311 250.800,269.421 250.800 C 269.531 250.800,269.341 250.260,269.000 249.600 C 268.659 248.940,268.289 248.400,268.179 248.400 C 268.069 248.400,268.259 248.940,268.600 249.600 M306.200 250.400 C 306.541 251.060,306.911 251.600,307.021 251.600 C 307.131 251.600,306.941 251.060,306.600 250.400 C 306.259 249.740,305.889 249.200,305.779 249.200 C 305.669 249.200,305.859 249.740,306.200 250.400 M186.629 251.029 C 186.481 251.615,186.438 252.172,186.532 252.266 C 186.627 252.360,186.824 251.958,186.971 251.371 C 187.119 250.785,187.162 250.228,187.068 250.134 C 186.973 250.040,186.776 250.442,186.629 251.029 M169.737 253.400 C 169.739 255.160,169.809 255.830,169.893 254.889 C 169.978 253.949,169.977 252.509,169.891 251.689 C 169.805 250.870,169.736 251.640,169.737 253.400 M105.600 250.920 C 105.600 251.304,107.645 254.400,107.899 254.400 C 108.078 254.400,107.441 253.319,106.139 251.411 C 105.842 250.977,105.600 250.756,105.600 250.920 M270.640 253.202 C 271.239 254.303,271.793 255.140,271.871 255.063 C 272.043 254.890,270.008 251.200,269.741 251.200 C 269.636 251.200,270.040 252.101,270.640 253.202 M307.800 253.200 C 308.141 253.860,308.511 254.400,308.621 254.400 C 308.731 254.400,308.541 253.860,308.200 253.200 C 307.859 252.540,307.489 252.000,307.379 252.000 C 307.269 252.000,307.459 252.540,307.800 253.200 M108.885 256.026 C 110.280 258.200,112.961 261.564,113.315 261.583 C 113.488 261.592,112.768 260.550,111.715 259.267 C 110.662 257.983,109.388 256.408,108.885 255.767 L 107.970 254.600 108.885 256.026 M320.843 258.033 C 320.867 259.665,321.026 262.080,321.197 263.400 C 321.395 264.934,321.432 263.924,321.300 260.600 C 321.074 254.945,320.773 253.253,320.843 258.033 M272.600 256.800 C 272.941 257.460,273.311 258.000,273.421 258.000 C 273.531 258.000,273.341 257.460,273.000 256.800 C 272.659 256.140,272.289 255.600,272.179 255.600 C 272.069 255.600,272.259 256.140,272.600 256.800 M310.200 257.600 C 310.541 258.260,310.911 258.800,311.021 258.800 C 311.131 258.800,310.941 258.260,310.600 257.600 C 310.259 256.940,309.889 256.400,309.779 256.400 C 309.669 256.400,309.859 256.940,310.200 257.600 M169.254 258.267 C 169.225 258.744,169.096 259.464,168.970 259.867 C 168.752 260.561,168.764 260.562,169.196 259.888 C 169.447 259.497,169.575 258.777,169.481 258.288 C 169.309 257.401,169.309 257.401,169.254 258.267 M183.878 259.005 C 183.512 259.772,183.295 260.400,183.396 260.400 C 183.670 260.400,184.884 257.951,184.701 257.768 C 184.614 257.681,184.244 258.238,183.878 259.005 M88.400 258.735 C 88.400 259.137,93.360 263.910,96.000 266.048 C 99.086 268.548,99.600 268.926,99.600 268.697 C 99.600 268.587,98.025 267.237,96.100 265.698 C 94.175 264.158,91.655 261.897,90.500 260.673 C 89.345 259.449,88.400 258.577,88.400 258.735 M274.640 260.402 C 275.239 261.503,275.793 262.340,275.871 262.263 C 276.043 262.090,274.008 258.400,273.741 258.400 C 273.636 258.400,274.040 259.301,274.640 260.402 M311.215 259.400 C 311.217 259.620,311.586 260.250,312.036 260.800 C 312.579 261.464,312.715 261.531,312.440 261.000 C 311.766 259.695,311.212 258.972,311.215 259.400 M181.429 263.100 C 180.582 264.365,180.239 265.089,180.666 264.709 C 181.383 264.071,183.429 260.800,183.110 260.800 C 183.033 260.800,182.277 261.835,181.429 263.100 M115.183 263.700 C 116.841 265.466,117.200 265.784,117.200 265.483 C 117.200 265.419,116.345 264.564,115.300 263.583 L 113.400 261.800 115.183 263.700 M276.600 264.000 C 276.941 264.660,277.311 265.200,277.421 265.200 C 277.531 265.200,277.341 264.660,277.000 264.000 C 276.659 263.340,276.289 262.800,276.179 262.800 C 276.069 262.800,276.259 263.340,276.600 264.000 M314.200 264.800 C 314.541 265.460,314.911 266.000,315.021 266.000 C 315.131 266.000,314.941 265.460,314.600 264.800 C 314.259 264.140,313.889 263.600,313.779 263.600 C 313.669 263.600,313.859 264.140,314.200 264.800 M199.473 267.360 C 199.315 269.318,199.263 270.996,199.356 271.089 C 199.603 271.336,200.112 265.463,199.922 264.562 C 199.833 264.143,199.631 265.402,199.473 267.360 M205.724 266.200 C 205.726 267.520,205.801 268.012,205.890 267.293 C 205.979 266.574,205.977 265.494,205.886 264.893 C 205.795 264.292,205.722 264.880,205.724 266.200 M166.800 265.061 C 166.800 265.278,166.156 266.208,165.369 267.128 C 164.582 268.048,164.087 268.794,164.269 268.788 C 164.780 268.769,167.344 265.211,167.055 264.922 C 166.915 264.782,166.800 264.844,166.800 265.061 M117.600 265.836 C 117.600 266.111,118.024 266.484,120.100 268.033 C 121.814 269.313,121.394 268.731,119.400 267.065 C 118.410 266.237,117.600 265.684,117.600 265.836 M177.200 268.112 C 175.770 269.486,173.970 271.114,173.200 271.731 C 171.997 272.694,172.057 272.677,173.630 271.609 C 175.257 270.503,180.463 265.589,179.987 265.607 C 179.884 265.611,178.630 266.738,177.200 268.112 M278.760 267.800 C 279.434 269.105,279.988 269.828,279.985 269.400 C 279.983 269.180,279.614 268.550,279.164 268.000 C 278.621 267.336,278.485 267.269,278.760 267.800 M321.630 269.833 C 321.646 270.915,321.810 272.610,321.994 273.600 C 322.230 274.869,322.264 274.337,322.111 271.800 C 321.874 267.878,321.582 266.685,321.630 269.833 M122.289 269.630 C 122.778 270.139,123.278 270.455,123.401 270.332 C 123.524 270.209,123.124 269.792,122.512 269.406 L 121.400 268.704 122.289 269.630 M206.101 270.200 C 206.105 271.080,206.187 271.393,206.283 270.895 C 206.379 270.398,206.375 269.678,206.275 269.295 C 206.175 268.913,206.096 269.320,206.101 270.200 M280.600 271.200 C 280.941 271.860,281.311 272.400,281.421 272.400 C 281.531 272.400,281.341 271.860,281.000 271.200 C 280.659 270.540,280.289 270.000,280.179 270.000 C 280.069 270.000,280.259 270.540,280.600 271.200 M124.000 270.583 C 124.000 270.857,127.612 272.921,127.786 272.747 C 127.868 272.665,127.050 272.103,125.968 271.499 C 124.886 270.895,124.000 270.483,124.000 270.583 M160.639 271.604 C 159.780 272.253,158.732 272.895,158.309 273.029 C 157.886 273.163,157.635 273.368,157.752 273.485 C 158.022 273.755,161.295 271.849,161.981 271.023 C 162.724 270.128,162.410 270.264,160.639 271.604 M103.600 271.390 C 103.600 271.494,104.185 271.865,104.900 272.214 L 106.200 272.848 105.200 272.033 C 104.237 271.248,103.600 270.992,103.600 271.390 M128.400 273.014 C 128.400 273.293,131.306 274.431,131.691 274.303 C 131.882 274.239,131.220 273.884,130.219 273.513 C 129.219 273.142,128.400 272.917,128.400 273.014 M198.959 275.000 L 199.000 277.000 202.800 277.000 L 206.600 277.000 206.641 275.000 L 206.682 273.000 206.519 274.900 L 206.356 276.800 202.800 276.800 L 199.244 276.800 199.081 274.900 L 198.918 273.000 198.959 275.000 M155.000 274.418 C 153.900 274.830,153.293 275.174,153.651 275.183 C 154.379 275.202,157.200 274.098,157.200 273.795 C 157.200 273.688,157.155 273.616,157.100 273.635 C 157.045 273.654,156.100 274.006,155.000 274.418 M168.800 274.436 C 168.136 274.979,168.069 275.115,168.600 274.840 C 169.905 274.166,170.628 273.612,170.200 273.615 C 169.980 273.617,169.350 273.986,168.800 274.436 M133.000 274.800 C 133.440 274.989,134.070 275.144,134.400 275.144 C 134.778 275.144,134.704 275.017,134.200 274.800 C 133.760 274.611,133.130 274.456,132.800 274.456 C 132.422 274.456,132.496 274.583,133.000 274.800 M282.760 275.000 C 283.434 276.305,283.988 277.028,283.985 276.600 C 283.983 276.380,283.614 275.750,283.164 275.200 C 282.621 274.536,282.485 274.469,282.760 275.000 M136.000 275.600 C 136.550 275.776,137.450 275.917,138.000 275.913 C 138.898 275.906,138.878 275.874,137.800 275.600 C 136.108 275.169,134.656 275.169,136.000 275.600 M150.600 275.600 C 149.493 275.882,149.477 275.909,150.400 275.947 C 150.950 275.969,151.670 275.813,152.000 275.600 C 152.681 275.160,152.329 275.160,150.600 275.600 M165.700 275.834 C 164.985 276.146,164.400 276.494,164.400 276.607 C 164.400 276.815,167.206 275.727,167.546 275.387 C 167.886 275.047,167.020 275.257,165.700 275.834 M141.913 276.295 C 143.076 276.376,144.876 276.376,145.913 276.293 C 146.951 276.211,146.000 276.145,143.800 276.146 C 141.600 276.147,140.751 276.214,141.913 276.295 M293.728 277.100 C 298.968 277.163,307.428 277.163,312.528 277.100 C 317.627 277.036,313.340 276.985,303.000 276.985 C 292.660 276.985,288.487 277.037,293.728 277.100 M122.000 278.800 C 123.368 279.238,124.419 279.238,123.400 278.800 C 122.960 278.611,122.240 278.462,121.800 278.468 C 121.157 278.477,121.196 278.543,122.000 278.800 M157.400 278.800 C 156.896 279.017,156.822 279.144,157.200 279.144 C 157.530 279.144,158.160 278.989,158.600 278.800 C 159.104 278.583,159.178 278.456,158.800 278.456 C 158.470 278.456,157.840 278.611,157.400 278.800 M125.800 279.600 C 127.492 280.031,128.944 280.031,127.600 279.600 C 127.050 279.424,126.150 279.283,125.600 279.287 C 124.702 279.294,124.722 279.326,125.800 279.600 M153.600 279.600 C 152.808 279.854,152.767 279.920,153.400 279.920 C 153.840 279.920,154.650 279.776,155.200 279.600 C 155.992 279.346,156.033 279.280,155.400 279.280 C 154.960 279.280,154.150 279.424,153.600 279.600 M131.600 280.417 C 132.810 280.584,134.430 280.715,135.200 280.707 C 136.322 280.696,136.203 280.631,134.600 280.382 C 133.500 280.210,131.880 280.080,131.000 280.091 C 129.607 280.110,129.684 280.152,131.600 280.417 M147.800 280.400 C 146.453 280.641,146.390 280.691,147.400 280.714 C 148.060 280.729,149.410 280.597,150.400 280.420 C 152.015 280.133,152.056 280.101,150.800 280.107 C 150.030 280.111,148.680 280.242,147.800 280.400 " stroke="none" fill="#797376" fill-rule="evenodd"></path><path id="path3" d="M121.718 122.298 C 123.433 122.373,126.133 122.372,127.718 122.297 C 129.303 122.221,127.900 122.159,124.600 122.160 C 121.300 122.161,120.003 122.222,121.718 122.298 M113.200 122.800 L 112.200 123.120 113.200 123.113 C 113.750 123.109,114.740 122.968,115.400 122.800 L 116.600 122.495 115.400 122.487 C 114.740 122.483,113.750 122.624,113.200 122.800 M133.800 122.800 C 134.460 122.968,135.450 123.109,136.000 123.113 L 137.000 123.120 136.000 122.800 C 135.450 122.624,134.460 122.483,133.800 122.487 L 132.600 122.495 133.800 122.800 M109.400 123.600 C 108.896 123.817,108.822 123.944,109.200 123.944 C 109.530 123.944,110.160 123.789,110.600 123.600 C 111.104 123.383,111.178 123.256,110.800 123.256 C 110.470 123.256,109.840 123.411,109.400 123.600 M138.600 123.600 C 139.040 123.789,139.760 123.944,140.200 123.944 L 141.000 123.944 140.200 123.600 C 139.760 123.411,139.040 123.256,138.600 123.256 L 137.800 123.256 138.600 123.600 M103.600 125.200 C 103.067 125.545,103.067 125.588,103.600 125.588 C 103.930 125.588,104.470 125.413,104.800 125.200 C 105.333 124.855,105.333 124.812,104.800 124.812 C 104.470 124.812,103.930 124.987,103.600 125.200 M100.900 126.234 C 100.185 126.546,99.600 126.894,99.600 127.007 C 99.600 127.215,102.406 126.127,102.746 125.787 C 103.086 125.447,102.220 125.657,100.900 126.234 M118.000 125.960 C 117.010 126.092,119.061 126.200,122.557 126.200 C 126.145 126.200,128.236 126.079,127.357 125.923 C 125.530 125.598,120.568 125.618,118.000 125.960 M199.200 125.900 C 199.200 126.065,207.718 126.152,218.128 126.092 L 237.057 125.985 237.596 126.992 C 237.892 127.546,238.209 127.925,238.299 127.834 C 238.390 127.744,238.159 127.204,237.786 126.635 L 237.108 125.600 218.154 125.600 C 207.729 125.600,199.200 125.735,199.200 125.900 M314.950 126.187 C 314.826 126.510,314.817 127.005,314.931 127.287 C 315.044 127.569,315.151 127.395,315.168 126.900 C 315.198 126.045,315.358 126.000,318.378 126.000 L 321.556 126.000 321.706 127.900 L 321.856 129.800 321.928 127.700 L 322.000 125.600 318.587 125.600 C 315.957 125.600,315.123 125.735,314.950 126.187 M113.600 126.800 C 112.796 127.057,112.757 127.123,113.400 127.132 C 113.840 127.138,114.560 126.989,115.000 126.800 C 116.019 126.362,114.968 126.362,113.600 126.800 M130.600 126.800 C 131.040 126.989,131.670 127.144,132.000 127.144 C 132.378 127.144,132.304 127.017,131.800 126.800 C 131.360 126.611,130.730 126.456,130.400 126.456 C 130.022 126.456,130.096 126.583,130.600 126.800 M199.288 128.400 C 199.278 129.170,199.410 130.700,199.582 131.800 C 199.834 133.418,199.897 133.533,199.912 132.400 C 199.922 131.630,199.790 130.100,199.618 129.000 C 199.366 127.382,199.303 127.267,199.288 128.400 M94.954 129.532 C 93.650 130.375,91.507 132.105,90.192 133.378 L 87.800 135.691 90.024 133.746 C 91.247 132.676,93.317 131.086,94.624 130.214 C 97.281 128.440,97.860 128.000,97.542 128.000 C 97.422 128.000,96.257 128.689,94.954 129.532 M239.000 129.600 C 239.341 130.260,239.711 130.800,239.821 130.800 C 239.931 130.800,239.741 130.260,239.400 129.600 C 239.059 128.940,238.689 128.400,238.579 128.400 C 238.469 128.400,238.659 128.940,239.000 129.600 M107.100 129.429 C 105.605 130.240,105.696 130.578,107.200 129.800 C 107.860 129.459,108.400 129.094,108.400 128.990 C 108.400 128.732,108.357 128.747,107.100 129.429 M138.345 129.623 C 139.085 130.074,139.777 130.357,139.882 130.251 C 140.084 130.050,137.873 128.799,137.320 128.801 C 137.144 128.802,137.605 129.172,138.345 129.623 M155.800 129.890 C 156.020 130.100,156.920 130.676,157.800 131.170 C 158.680 131.665,159.040 131.770,158.600 131.404 C 157.706 130.661,155.172 129.291,155.800 129.890 M315.288 131.000 C 315.278 131.880,315.410 133.500,315.582 134.600 C 315.884 136.539,315.894 136.551,315.912 135.000 C 315.922 134.120,315.790 132.500,315.618 131.400 C 315.316 129.461,315.306 129.449,315.288 131.000 M103.385 132.500 L 101.400 134.600 103.500 132.615 C 104.655 131.523,105.600 130.578,105.600 130.515 C 105.600 130.217,105.229 130.549,103.385 132.500 M141.600 131.325 C 141.600 131.424,142.261 132.009,143.068 132.625 C 143.876 133.241,144.411 133.541,144.256 133.291 C 143.940 132.779,141.600 131.047,141.600 131.325 M159.600 132.143 C 159.600 132.243,160.519 132.985,161.642 133.792 C 162.765 134.599,163.565 135.068,163.421 134.834 C 163.120 134.348,159.600 131.868,159.600 132.143 M321.000 136.000 C 320.841 138.224,320.797 140.130,320.903 140.236 C 321.008 140.342,321.224 138.607,321.382 136.382 C 321.540 134.156,321.583 132.250,321.479 132.146 C 321.375 132.041,321.159 133.776,321.000 136.000 M241.386 133.900 C 241.735 134.615,242.106 135.200,242.210 135.200 C 242.608 135.200,242.352 134.563,241.567 133.600 L 240.752 132.600 241.386 133.900 M144.800 133.829 C 144.800 134.076,145.190 134.456,147.018 135.995 C 147.789 136.643,147.650 136.400,146.619 135.295 C 145.030 133.592,144.800 133.407,144.800 133.829 M204.300 134.633 C 204.135 134.798,204.000 144.443,204.000 156.067 L 204.000 177.200 202.800 177.200 L 201.600 177.200 201.543 172.900 C 201.512 170.535,201.366 164.010,201.219 158.400 L 200.951 148.200 200.876 162.267 C 200.834 170.004,200.909 176.619,201.043 176.967 C 201.454 178.039,204.331 177.823,204.603 176.700 C 204.938 175.321,204.642 134.291,204.300 134.633 M100.600 136.000 C 100.259 136.660,100.069 137.200,100.179 137.200 C 100.289 137.200,100.659 136.660,101.000 136.000 C 101.341 135.340,101.531 134.800,101.421 134.800 C 101.311 134.800,100.941 135.340,100.600 136.000 M200.101 137.600 C 200.089 138.810,200.216 140.790,200.383 142.000 C 200.814 145.116,200.840 141.786,200.414 138.000 L 200.122 135.400 200.101 137.600 M243.000 136.800 C 243.341 137.460,243.711 138.000,243.821 138.000 C 243.931 138.000,243.741 137.460,243.400 136.800 C 243.059 136.140,242.689 135.600,242.579 135.600 C 242.469 135.600,242.659 136.140,243.000 136.800 M86.214 137.900 C 85.447 138.945,84.815 139.965,84.810 140.167 C 84.804 140.368,84.856 140.458,84.923 140.367 C 86.283 138.531,87.952 136.000,87.803 136.000 C 87.696 136.000,86.980 136.855,86.214 137.900 M206.409 136.700 C 206.414 136.865,206.785 137.450,207.233 138.000 L 208.048 139.000 207.414 137.700 C 206.811 136.465,206.389 136.045,206.409 136.700 M166.000 136.854 C 166.000 136.934,168.105 139.070,170.677 141.600 C 173.249 144.130,174.464 145.200,173.377 143.979 C 171.476 141.842,166.000 136.554,166.000 136.854 M149.368 138.900 C 150.209 139.945,150.977 140.800,151.075 140.800 C 151.392 140.800,149.717 138.626,148.763 137.800 C 148.255 137.360,148.528 137.855,149.368 138.900 M316.312 146.600 C 316.421 150.560,316.575 153.875,316.655 153.967 C 316.900 154.249,316.713 145.579,316.405 142.400 C 316.239 140.691,316.199 142.499,316.312 146.600 M98.584 142.191 C 98.433 143.396,98.467 145.241,98.659 146.291 C 98.959 147.933,99.008 147.627,99.008 144.100 C 99.009 139.392,98.961 139.175,98.584 142.191 M245.400 141.200 C 245.741 141.860,246.111 142.400,246.221 142.400 C 246.331 142.400,246.141 141.860,245.800 141.200 C 245.459 140.540,245.089 140.000,244.979 140.000 C 244.869 140.000,245.059 140.540,245.400 141.200 M209.400 142.000 C 209.741 142.660,210.111 143.200,210.221 143.200 C 210.331 143.200,210.141 142.660,209.800 142.000 C 209.459 141.340,209.089 140.800,208.979 140.800 C 208.869 140.800,209.059 141.340,209.400 142.000 M247.420 144.840 C 247.989 145.962,248.534 146.799,248.633 146.701 C 248.823 146.510,246.851 142.800,246.559 142.800 C 246.464 142.800,246.852 143.718,247.420 144.840 M320.262 148.659 C 320.118 151.666,320.000 159.308,320.000 165.640 L 320.000 177.154 318.300 177.321 L 316.600 177.488 318.400 177.444 L 320.200 177.400 320.455 160.400 C 320.595 151.050,320.668 143.353,320.617 143.296 C 320.566 143.238,320.406 145.652,320.262 148.659 M153.400 144.800 C 153.741 145.460,154.111 146.000,154.221 146.000 C 154.331 146.000,154.141 145.460,153.800 144.800 C 153.459 144.140,153.089 143.600,152.979 143.600 C 152.869 143.600,153.059 144.140,153.400 144.800 M210.400 143.750 C 210.400 144.041,212.471 147.600,212.641 147.600 C 212.736 147.600,212.357 146.700,211.800 145.600 C 210.931 143.886,210.400 143.183,210.400 143.750 M82.600 144.800 C 82.450 145.273,82.417 145.750,82.527 145.860 C 82.637 145.970,82.850 145.673,83.000 145.200 C 83.150 144.727,83.183 144.250,83.073 144.140 C 82.963 144.030,82.750 144.327,82.600 144.800 M154.440 146.600 C 154.440 146.820,155.142 148.350,156.000 150.000 C 156.858 151.650,157.560 152.820,157.560 152.600 C 157.560 152.380,156.858 150.850,156.000 149.200 C 155.142 147.550,154.440 146.380,154.440 146.600 M175.600 146.664 C 175.600 146.882,176.095 147.497,176.700 148.030 L 177.800 149.000 176.800 147.800 C 176.250 147.140,175.755 146.525,175.700 146.433 C 175.645 146.342,175.600 146.445,175.600 146.664 M81.849 147.415 C 81.712 147.773,81.618 148.456,81.641 148.933 C 81.667 149.481,81.803 149.286,82.010 148.403 C 82.360 146.916,82.265 146.333,81.849 147.415 M249.400 148.400 C 249.741 149.060,250.111 149.600,250.221 149.600 C 250.331 149.600,250.141 149.060,249.800 148.400 C 249.459 147.740,249.089 147.200,248.979 147.200 C 248.869 147.200,249.059 147.740,249.400 148.400 M213.400 149.200 C 213.741 149.860,214.111 150.400,214.221 150.400 C 214.331 150.400,214.141 149.860,213.800 149.200 C 213.459 148.540,213.089 148.000,212.979 148.000 C 212.869 148.000,213.059 148.540,213.400 149.200 M180.019 152.400 C 181.368 154.270,182.664 155.980,182.899 156.200 C 183.640 156.893,180.079 151.860,178.793 150.397 C 178.118 149.629,178.670 150.530,180.019 152.400 M81.072 153.300 C 80.942 154.895,80.972 157.280,81.140 158.600 C 81.389 160.557,81.449 160.021,81.462 155.700 C 81.480 149.652,81.408 149.207,81.072 153.300 M251.800 152.800 C 252.141 153.460,252.511 154.000,252.621 154.000 C 252.731 154.000,252.541 153.460,252.200 152.800 C 251.859 152.140,251.489 151.600,251.379 151.600 C 251.269 151.600,251.459 152.140,251.800 152.800 M215.800 153.600 C 216.141 154.260,216.511 154.800,216.621 154.800 C 216.731 154.800,216.541 154.260,216.200 153.600 C 215.859 152.940,215.489 152.400,215.379 152.400 C 215.269 152.400,215.459 152.940,215.800 153.600 M101.477 154.031 C 101.875 154.708,102.456 155.473,102.768 155.731 C 103.080 155.989,102.832 155.435,102.215 154.500 C 100.920 152.537,100.409 152.212,101.477 154.031 M253.400 155.600 C 253.741 156.260,254.111 156.800,254.221 156.800 C 254.331 156.800,254.141 156.260,253.800 155.600 C 253.459 154.940,253.089 154.400,252.979 154.400 C 252.869 154.400,253.059 154.940,253.400 155.600 M217.400 156.400 C 217.741 157.060,218.111 157.600,218.221 157.600 C 218.331 157.600,218.141 157.060,217.800 156.400 C 217.459 155.740,217.089 155.200,216.979 155.200 C 216.869 155.200,217.059 155.740,217.400 156.400 M104.800 158.142 C 105.790 159.200,107.500 160.803,108.600 161.704 C 110.912 163.596,110.218 162.870,106.000 158.982 C 104.050 157.184,103.630 156.890,104.800 158.142 M255.800 160.000 C 256.141 160.660,256.511 161.200,256.621 161.200 C 256.731 161.200,256.541 160.660,256.200 160.000 C 255.859 159.340,255.489 158.800,255.379 158.800 C 255.269 158.800,255.459 159.340,255.800 160.000 M219.800 160.800 C 220.141 161.460,220.511 162.000,220.621 162.000 C 220.731 162.000,220.541 161.460,220.200 160.800 C 219.859 160.140,219.489 159.600,219.379 159.600 C 219.269 159.600,219.459 160.140,219.800 160.800 M160.012 160.400 C 160.012 160.730,160.187 161.270,160.400 161.600 C 160.745 162.133,160.788 162.133,160.788 161.600 C 160.788 161.270,160.613 160.730,160.400 160.400 C 160.055 159.867,160.012 159.867,160.012 160.400 M81.668 162.800 C 81.662 163.350,81.811 164.160,82.000 164.600 L 82.344 165.400 82.332 164.600 C 82.326 164.160,82.176 163.350,82.000 162.800 L 81.680 161.800 81.668 162.800 M160.856 162.800 C 160.856 163.130,161.011 163.760,161.200 164.200 C 161.417 164.704,161.544 164.778,161.544 164.400 C 161.544 164.070,161.389 163.440,161.200 163.000 C 160.983 162.496,160.856 162.422,160.856 162.800 M221.400 163.600 C 221.741 164.260,222.111 164.800,222.221 164.800 C 222.331 164.800,222.141 164.260,221.800 163.600 C 221.459 162.940,221.089 162.400,220.979 162.400 C 220.869 162.400,221.059 162.940,221.400 163.600 M111.926 164.328 C 113.508 165.728,116.800 168.123,116.800 167.873 C 116.800 167.776,115.405 166.675,113.700 165.425 C 111.995 164.176,111.197 163.682,111.926 164.328 M257.960 163.800 C 258.634 165.105,259.188 165.828,259.185 165.400 C 259.183 165.180,258.814 164.550,258.364 164.000 C 257.821 163.336,257.685 163.269,257.960 163.800 M166.600 165.578 C 165.720 165.995,165.113 166.350,165.251 166.368 C 165.640 166.418,168.400 165.214,168.400 164.995 C 168.400 164.727,168.399 164.727,166.600 165.578 M161.612 165.600 C 161.612 166.290,162.280 167.470,162.511 167.188 C 162.596 167.085,162.429 166.550,162.139 166.000 C 161.848 165.449,161.612 165.269,161.612 165.600 M259.800 167.200 C 260.141 167.860,260.511 168.400,260.621 168.400 C 260.731 168.400,260.541 167.860,260.200 167.200 C 259.859 166.540,259.489 166.000,259.379 166.000 C 259.269 166.000,259.459 166.540,259.800 167.200 M223.800 168.000 C 224.141 168.660,224.511 169.200,224.621 169.200 C 224.731 169.200,224.541 168.660,224.200 168.000 C 223.859 167.340,223.489 166.800,223.379 166.800 C 223.269 166.800,223.459 167.340,223.800 168.000 M83.226 168.400 C 83.233 168.987,84.750 172.049,84.783 171.544 C 84.792 171.403,84.444 170.503,84.009 169.544 C 83.574 168.585,83.221 168.070,83.226 168.400 M117.200 168.174 C 117.200 168.282,120.111 170.357,123.668 172.785 L 130.136 177.200 109.400 177.200 C 90.217 177.200,88.604 177.148,87.875 176.500 C 87.108 175.819,87.101 175.824,87.640 176.700 L 88.192 177.600 109.296 177.600 C 121.759 177.600,130.400 177.450,130.400 177.235 C 130.400 177.034,127.430 174.869,123.800 172.424 C 120.170 169.979,117.200 168.067,117.200 168.174 M224.809 169.900 C 224.814 170.065,225.185 170.650,225.633 171.200 L 226.448 172.200 225.814 170.900 C 225.211 169.665,224.789 169.245,224.809 169.900 M262.200 171.600 C 262.541 172.260,262.911 172.800,263.021 172.800 C 263.131 172.800,262.941 172.260,262.600 171.600 C 262.259 170.940,261.889 170.400,261.779 170.400 C 261.669 170.400,261.859 170.940,262.200 171.600 M85.400 173.200 C 85.741 173.860,86.111 174.400,86.221 174.400 C 86.331 174.400,86.141 173.860,85.800 173.200 C 85.459 172.540,85.089 172.000,84.979 172.000 C 84.869 172.000,85.059 172.540,85.400 173.200 M263.800 174.400 C 264.141 175.060,264.511 175.600,264.621 175.600 C 264.731 175.600,264.541 175.060,264.200 174.400 C 263.859 173.740,263.489 173.200,263.379 173.200 C 263.269 173.200,263.459 173.740,263.800 174.400 M227.800 175.200 C 228.141 175.860,228.511 176.400,228.621 176.400 C 228.731 176.400,228.541 175.860,228.200 175.200 C 227.859 174.540,227.489 174.000,227.379 174.000 C 227.269 174.000,227.459 174.540,227.800 175.200 M264.923 176.542 C 265.163 177.169,263.907 177.208,247.029 177.108 C 237.045 177.049,228.960 177.135,229.062 177.300 C 229.450 177.928,265.600 177.655,265.600 177.024 C 265.600 176.707,265.389 176.317,265.132 176.158 C 264.816 175.963,264.748 176.088,264.923 176.542 M95.800 195.068 C 92.923 195.785,93.471 198.700,96.691 199.807 C 98.672 200.488,99.271 201.446,98.208 202.235 C 97.395 202.839,95.464 202.681,94.536 201.934 C 94.239 201.696,93.964 201.734,93.775 202.041 C 92.976 203.333,96.847 204.410,98.751 203.425 C 101.123 202.199,100.473 199.823,97.475 198.761 C 94.230 197.612,94.674 195.721,98.083 196.173 C 99.795 196.400,100.625 196.034,99.697 195.460 C 99.146 195.120,96.614 194.865,95.800 195.068 M112.990 195.700 C 112.502 197.649,112.965 203.800,113.600 203.800 C 114.080 203.800,114.223 203.081,114.318 200.200 C 114.442 196.389,114.231 194.800,113.600 194.800 C 113.388 194.800,113.114 195.205,112.990 195.700 M127.390 195.700 C 127.030 197.140,127.360 203.595,127.800 203.702 C 128.020 203.756,128.304 202.589,128.432 201.101 C 128.640 198.680,128.966 197.563,129.328 198.033 C 129.398 198.125,129.956 199.244,130.567 200.520 C 131.871 203.241,132.234 203.237,133.588 200.489 C 135.106 197.410,135.600 197.489,135.600 200.813 C 135.600 203.024,135.724 203.600,136.200 203.600 C 136.695 203.600,136.800 202.869,136.800 199.424 C 136.800 193.761,135.818 193.333,133.703 198.073 C 132.386 201.026,131.924 200.994,130.420 197.843 C 129.390 195.684,128.622 194.800,127.775 194.800 C 127.687 194.800,127.514 195.205,127.390 195.700 M150.700 195.025 C 150.239 195.499,150.333 203.600,150.800 203.600 C 151.020 203.600,151.200 203.253,151.200 202.829 C 151.200 201.633,152.312 200.801,153.929 200.787 C 156.655 200.764,158.199 197.628,156.380 195.808 C 155.723 195.152,151.185 194.525,150.700 195.025 M169.790 195.700 C 169.666 196.195,169.618 198.220,169.682 200.200 L 169.800 203.800 172.300 203.800 C 175.205 203.800,175.841 203.093,173.200 202.800 L 171.400 202.600 171.299 199.600 C 171.181 196.107,170.936 194.800,170.400 194.800 C 170.188 194.800,169.914 195.205,169.790 195.700 M187.394 195.683 C 187.268 196.187,187.218 198.220,187.282 200.200 L 187.400 203.800 190.367 203.800 C 194.095 203.800,194.890 202.906,191.326 202.721 C 189.032 202.602,188.998 202.583,188.876 201.322 L 188.753 200.043 190.876 199.922 C 193.614 199.765,193.631 199.036,190.900 198.879 C 188.802 198.758,188.800 198.757,188.800 197.399 L 188.800 196.040 191.005 195.920 C 194.248 195.743,193.905 195.021,190.512 194.883 C 187.789 194.772,187.611 194.818,187.394 195.683 M244.037 195.313 C 240.000 196.756,240.160 202.112,244.285 203.570 C 248.745 205.147,252.458 199.720,249.169 196.431 C 248.492 195.754,247.727 195.198,247.469 195.195 C 247.211 195.192,246.640 195.107,246.200 195.007 C 245.760 194.908,244.787 195.045,244.037 195.313 M262.500 195.057 C 261.522 195.467,262.022 196.000,263.386 196.000 L 264.771 196.000 264.886 199.900 C 265.033 204.940,265.737 205.003,266.000 200.000 L 266.200 196.200 267.524 196.073 C 268.324 195.996,268.787 195.758,268.692 195.473 C 268.533 194.989,263.471 194.649,262.500 195.057 M281.685 195.129 C 281.307 195.376,281.201 196.572,281.285 199.633 L 281.400 203.800 284.300 203.800 C 287.777 203.800,288.211 203.086,284.908 202.800 C 282.644 202.604,282.598 202.575,282.475 201.300 L 282.349 200.000 284.575 200.000 C 287.665 200.000,287.773 198.898,284.700 198.721 C 282.652 198.603,282.597 198.568,282.475 197.300 L 282.349 196.000 284.808 196.000 C 286.596 196.000,287.222 195.864,287.102 195.500 C 286.909 194.916,282.477 194.612,281.685 195.129 M302.142 195.073 C 299.418 195.617,299.458 198.440,302.206 199.551 C 304.446 200.456,304.800 200.738,304.800 201.616 C 304.800 202.589,303.345 202.988,301.858 202.422 C 300.394 201.865,300.000 201.890,300.000 202.536 C 300.000 203.682,303.138 204.240,304.745 203.379 C 307.374 201.971,306.902 200.182,303.518 198.727 C 300.651 197.493,300.860 196.161,303.900 196.287 C 305.753 196.364,306.580 195.989,305.700 195.471 C 305.138 195.140,303.002 194.901,302.142 195.073 M220.800 199.400 C 220.800 201.933,220.959 203.600,221.200 203.600 C 221.429 203.600,221.600 202.400,221.600 200.800 C 221.600 197.056,222.049 197.134,225.224 201.432 C 227.961 205.138,228.474 204.801,228.315 199.399 C 228.173 194.551,227.200 193.301,227.200 197.967 C 227.200 201.769,226.819 201.715,223.800 197.482 C 221.306 193.985,220.800 194.309,220.800 199.400 M114.000 199.600 C 114.000 202.000,113.840 203.600,113.600 203.600 C 113.360 203.600,113.200 202.000,113.200 199.600 C 113.200 197.200,113.360 195.600,113.600 195.600 C 113.840 195.600,114.000 197.200,114.000 199.600 M129.108 196.419 C 129.182 196.804,128.926 197.029,128.413 197.029 C 127.887 197.029,127.600 196.766,127.600 196.285 C 127.600 195.381,128.931 195.500,129.108 196.419 M136.400 196.314 C 136.400 196.762,136.101 197.029,135.600 197.029 C 134.662 197.029,134.635 196.954,135.300 196.198 C 135.986 195.419,136.400 195.463,136.400 196.314 M170.873 199.601 C 170.968 202.603,170.875 203.602,170.500 203.601 C 170.133 203.600,170.000 202.533,170.000 199.600 C 170.000 194.395,170.709 194.396,170.873 199.601 M188.423 197.300 C 188.435 198.235,188.480 200.035,188.523 201.300 C 188.577 202.915,188.451 203.600,188.100 203.600 C 187.733 203.600,187.600 202.533,187.600 199.600 C 187.600 197.200,187.760 195.600,188.000 195.600 C 188.220 195.600,188.410 196.365,188.423 197.300 M222.307 196.400 C 222.745 197.100,222.707 197.200,222.003 197.200 C 221.467 197.200,221.200 196.934,221.200 196.400 C 221.200 195.960,221.337 195.600,221.504 195.600 C 221.671 195.600,222.032 195.960,222.307 196.400 M155.300 196.557 C 156.943 197.804,155.568 200.000,153.146 200.000 C 151.453 200.000,150.861 199.004,151.364 197.000 C 151.653 195.848,154.016 195.582,155.300 196.557 M247.920 196.811 C 250.789 199.484,248.003 203.846,244.320 202.446 C 243.033 201.956,242.400 200.889,242.400 199.207 C 242.400 196.559,245.981 195.005,247.920 196.811 M301.035 197.898 C 300.598 198.335,300.299 197.640,300.612 196.917 C 300.910 196.232,300.932 196.233,301.097 196.931 C 301.193 197.334,301.165 197.769,301.035 197.898 M306.000 201.400 C 306.000 201.704,305.820 202.064,305.600 202.200 C 305.372 202.341,305.200 201.996,305.200 201.400 C 305.200 200.804,305.372 200.459,305.600 200.600 C 305.820 200.736,306.000 201.096,306.000 201.400 M227.600 202.480 C 227.600 203.126,227.482 203.242,227.155 202.915 C 226.910 202.670,226.831 202.274,226.978 202.035 C 227.392 201.365,227.600 201.514,227.600 202.480 M143.200 220.304 C 143.200 220.471,143.605 220.860,144.100 221.168 C 144.924 221.681,144.954 221.672,144.451 221.064 C 143.941 220.447,145.250 220.400,163.007 220.400 C 180.720 220.400,182.153 220.451,182.678 221.100 C 183.189 221.732,183.202 221.712,182.808 220.900 L 182.372 220.000 162.786 220.000 C 152.014 220.000,143.200 220.137,143.200 220.304 M201.043 220.633 C 200.909 220.981,200.833 228.766,200.874 237.933 L 200.948 254.600 201.222 244.000 C 201.373 238.170,201.519 230.475,201.548 226.900 L 201.600 220.400 202.800 220.400 L 204.000 220.400 204.056 227.500 C 204.086 231.405,204.233 239.100,204.381 244.600 C 204.643 254.362,204.651 254.203,204.725 237.933 C 204.809 219.242,204.891 220.000,202.800 220.000 C 201.788 220.000,201.205 220.210,201.043 220.633 M253.017 220.372 C 252.891 220.577,252.970 220.858,253.193 220.996 C 253.417 221.134,253.600 221.057,253.600 220.824 C 253.600 219.872,289.106 220.277,289.618 221.234 C 289.864 221.693,290.153 221.981,290.260 221.873 C 290.368 221.766,290.220 221.300,289.931 220.839 C 289.359 219.923,253.574 219.471,253.017 220.372 M318.300 220.293 L 320.000 220.446 320.049 235.723 C 320.076 244.125,320.211 252.890,320.349 255.200 C 320.487 257.510,320.543 250.760,320.473 240.200 C 320.326 218.122,320.526 219.980,318.313 220.070 L 316.600 220.140 318.300 220.293 M93.403 221.195 C 93.267 221.416,93.414 221.493,93.737 221.369 C 94.115 221.224,94.458 221.537,94.726 222.273 C 95.053 223.171,95.143 223.234,95.168 222.580 C 95.218 221.287,93.958 220.298,93.403 221.195 M145.344 221.909 C 145.660 222.421,148.000 224.153,148.000 223.875 C 148.000 223.776,147.339 223.191,146.532 222.575 C 145.724 221.959,145.189 221.659,145.344 221.909 M254.200 222.800 C 254.541 223.460,254.911 224.000,255.021 224.000 C 255.131 224.000,254.941 223.460,254.600 222.800 C 254.259 222.140,253.889 221.600,253.779 221.600 C 253.669 221.600,253.859 222.140,254.200 222.800 M89.900 223.029 C 88.405 223.840,88.496 224.178,90.000 223.400 C 90.660 223.059,91.200 222.694,91.200 222.590 C 91.200 222.332,91.157 222.347,89.900 223.029 M291.000 223.600 C 291.341 224.260,291.711 224.800,291.821 224.800 C 291.931 224.800,291.741 224.260,291.400 223.600 C 291.059 222.940,290.689 222.400,290.579 222.400 C 290.469 222.400,290.659 222.940,291.000 223.600 M86.800 224.833 L 85.800 225.648 87.100 225.014 C 87.815 224.665,88.400 224.294,88.400 224.190 C 88.400 223.792,87.763 224.048,86.800 224.833 M148.400 224.153 C 148.400 224.263,149.480 225.184,150.800 226.200 C 152.120 227.216,153.200 227.957,153.200 227.847 C 153.200 227.737,152.120 226.816,150.800 225.800 C 149.480 224.784,148.400 224.043,148.400 224.153 M95.256 224.800 C 95.256 225.130,95.411 225.760,95.600 226.200 C 95.817 226.704,95.944 226.778,95.944 226.400 C 95.944 226.070,95.789 225.440,95.600 225.000 C 95.383 224.496,95.256 224.422,95.256 224.800 M256.600 227.200 C 256.941 227.860,257.311 228.400,257.421 228.400 C 257.531 228.400,257.341 227.860,257.000 227.200 C 256.659 226.540,256.289 226.000,256.179 226.000 C 256.069 226.000,256.259 226.540,256.600 227.200 M82.700 227.029 C 81.205 227.840,81.296 228.178,82.800 227.400 C 83.460 227.059,84.000 226.694,84.000 226.590 C 84.000 226.332,83.957 226.347,82.700 227.029 M293.400 228.000 C 293.741 228.660,294.111 229.200,294.221 229.200 C 294.331 229.200,294.141 228.660,293.800 228.000 C 293.459 227.340,293.089 226.800,292.979 226.800 C 292.869 226.800,293.059 227.340,293.400 228.000 M96.056 228.000 C 96.056 228.330,96.211 228.960,96.400 229.400 C 96.617 229.904,96.744 229.978,96.744 229.600 C 96.744 229.270,96.589 228.640,96.400 228.200 C 96.183 227.696,96.056 227.622,96.056 228.000 M79.111 228.960 C 76.787 230.341,76.782 230.606,79.100 229.441 C 80.255 228.861,81.200 228.300,81.200 228.193 C 81.200 227.849,80.629 228.058,79.111 228.960 M153.633 228.263 C 153.651 228.448,154.866 229.577,156.333 230.772 C 157.800 231.966,158.640 232.531,158.200 232.027 C 157.053 230.714,153.594 227.862,153.633 228.263 M185.844 229.000 C 186.173 230.471,186.402 230.790,186.394 229.767 C 186.391 229.345,186.205 228.730,185.982 228.400 C 185.685 227.962,185.648 228.124,185.844 229.000 M258.200 230.000 C 258.541 230.660,258.911 231.200,259.021 231.200 C 259.131 231.200,258.941 230.660,258.600 230.000 C 258.259 229.340,257.889 228.800,257.779 228.800 C 257.669 228.800,257.859 229.340,258.200 230.000 M295.440 231.602 C 296.039 232.703,296.593 233.540,296.671 233.463 C 296.843 233.290,294.808 229.600,294.541 229.600 C 294.436 229.600,294.840 230.501,295.440 231.602 M75.500 231.029 C 74.005 231.840,74.096 232.178,75.600 231.400 C 76.260 231.059,76.800 230.694,76.800 230.590 C 76.800 230.332,76.757 230.347,75.500 231.029 M96.856 230.800 C 96.856 231.130,97.011 231.760,97.200 232.200 C 97.417 232.704,97.544 232.778,97.544 232.400 C 97.544 232.070,97.389 231.440,97.200 231.000 C 96.983 230.496,96.856 230.422,96.856 230.800 M186.673 232.400 C 186.804 233.390,186.976 234.275,187.056 234.367 C 187.357 234.714,187.128 232.164,186.790 231.400 C 186.553 230.866,186.514 231.198,186.673 232.400 M72.780 232.624 C 72.284 233.221,74.727 239.261,75.711 239.868 C 75.884 239.975,75.261 238.522,74.327 236.638 C 72.666 233.289,72.646 233.201,73.414 232.620 C 73.846 232.293,73.997 232.020,73.749 232.013 C 73.501 232.006,73.065 232.281,72.780 232.624 M159.200 232.932 C 159.200 233.340,162.014 236.119,162.219 235.914 C 162.311 235.823,161.669 235.048,160.793 234.193 C 159.917 233.337,159.200 232.770,159.200 232.932 M260.600 234.400 C 260.941 235.060,261.311 235.600,261.421 235.600 C 261.531 235.600,261.341 235.060,261.000 234.400 C 260.659 233.740,260.289 233.200,260.179 233.200 C 260.069 233.200,260.259 233.740,260.600 234.400 M297.400 235.200 C 297.741 235.860,298.111 236.400,298.221 236.400 C 298.331 236.400,298.141 235.860,297.800 235.200 C 297.459 234.540,297.089 234.000,296.979 234.000 C 296.869 234.000,297.059 234.540,297.400 235.200 M187.345 241.000 C 187.344 245.758,187.390 246.179,187.650 243.800 C 187.818 242.260,187.819 239.740,187.651 238.200 C 187.391 235.821,187.345 236.243,187.345 241.000 M262.200 237.200 C 262.541 237.860,262.911 238.400,263.021 238.400 C 263.131 238.400,262.941 237.860,262.600 237.200 C 262.259 236.540,261.889 236.000,261.779 236.000 C 261.669 236.000,261.859 236.540,262.200 237.200 M164.050 238.176 C 164.407 238.629,165.377 240.035,166.206 241.300 C 167.035 242.565,167.789 243.600,167.882 243.600 C 168.281 243.600,166.189 240.372,164.855 238.928 C 164.055 238.062,163.692 237.724,164.050 238.176 M299.786 239.500 C 300.135 240.215,300.506 240.800,300.610 240.800 C 301.008 240.800,300.752 240.163,299.967 239.200 L 299.152 238.200 299.786 239.500 M76.600 241.600 C 76.941 242.260,77.311 242.800,77.421 242.800 C 77.531 242.800,77.341 242.260,77.000 241.600 C 76.659 240.940,76.289 240.400,76.179 240.400 C 76.069 240.400,76.259 240.940,76.600 241.600 M264.600 241.600 C 264.941 242.260,265.311 242.800,265.421 242.800 C 265.531 242.800,265.341 242.260,265.000 241.600 C 264.659 240.940,264.289 240.400,264.179 240.400 C 264.069 240.400,264.259 240.940,264.600 241.600 M301.400 242.400 C 301.741 243.060,302.111 243.600,302.221 243.600 C 302.331 243.600,302.141 243.060,301.800 242.400 C 301.459 241.740,301.089 241.200,300.979 241.200 C 300.869 241.200,301.059 241.740,301.400 242.400 M78.394 244.700 C 78.859 245.525,79.612 246.650,80.067 247.200 L 80.895 248.200 80.195 247.035 C 79.811 246.394,79.141 245.269,78.708 244.535 C 77.625 242.698,77.348 242.844,78.394 244.700 M265.609 243.500 C 265.614 243.665,265.985 244.250,266.433 244.800 L 267.248 245.800 266.614 244.500 C 266.011 243.265,265.589 242.845,265.609 243.500 M303.800 246.800 C 304.141 247.460,304.511 248.000,304.621 248.000 C 304.731 248.000,304.541 247.460,304.200 246.800 C 303.859 246.140,303.489 245.600,303.379 245.600 C 303.269 245.600,303.459 246.140,303.800 246.800 M186.654 249.154 C 186.500 250.118,186.458 250.991,186.561 251.094 C 186.830 251.363,187.315 248.545,187.107 247.922 C 187.012 247.636,186.808 248.190,186.654 249.154 M268.600 248.800 C 268.941 249.460,269.311 250.000,269.421 250.000 C 269.531 250.000,269.341 249.460,269.000 248.800 C 268.659 248.140,268.289 247.600,268.179 247.600 C 268.069 247.600,268.259 248.140,268.600 248.800 M169.800 253.659 C 169.800 256.574,169.914 258.428,170.053 257.779 C 170.386 256.225,170.391 250.449,170.060 249.280 C 169.917 248.773,169.800 250.744,169.800 253.659 M305.400 249.600 C 305.741 250.260,306.111 250.800,306.221 250.800 C 306.331 250.800,306.141 250.260,305.800 249.600 C 305.459 248.940,305.089 248.400,304.979 248.400 C 304.869 248.400,305.059 248.940,305.400 249.600 M104.600 250.000 C 104.941 250.660,105.311 251.200,105.421 251.200 C 105.531 251.200,105.341 250.660,105.000 250.000 C 104.659 249.340,104.289 248.800,104.179 248.800 C 104.069 248.800,104.259 249.340,104.600 250.000 M82.770 251.300 C 85.064 254.447,88.997 259.172,89.334 259.186 C 89.517 259.194,88.692 258.075,87.499 256.700 C 86.306 255.325,84.559 253.165,83.617 251.900 C 82.675 250.635,81.820 249.600,81.717 249.600 C 81.615 249.600,82.088 250.365,82.770 251.300 M269.609 250.700 C 269.614 250.865,269.985 251.450,270.433 252.000 L 271.248 253.000 270.614 251.700 C 270.011 250.465,269.589 250.045,269.609 250.700 M105.848 252.100 C 107.094 254.210,109.777 258.045,110.814 259.200 L 112.072 260.600 110.894 259.000 C 110.247 258.120,108.854 256.095,107.800 254.500 C 106.745 252.905,105.808 251.600,105.718 251.600 C 105.627 251.600,105.686 251.825,105.848 252.100 M185.829 252.629 C 185.681 253.215,185.651 253.784,185.761 253.894 C 185.871 254.004,186.081 253.615,186.229 253.029 C 186.376 252.442,186.406 251.873,186.296 251.763 C 186.186 251.653,185.976 252.042,185.829 252.629 M307.800 254.000 C 308.141 254.660,308.511 255.200,308.621 255.200 C 308.731 255.200,308.541 254.660,308.200 254.000 C 307.859 253.340,307.489 252.800,307.379 252.800 C 307.269 252.800,307.459 253.340,307.800 254.000 M272.600 256.000 C 272.941 256.660,273.311 257.200,273.421 257.200 C 273.531 257.200,273.341 256.660,273.000 256.000 C 272.659 255.340,272.289 254.800,272.179 254.800 C 272.069 254.800,272.259 255.340,272.600 256.000 M183.878 258.205 C 183.512 258.972,183.295 259.600,183.396 259.600 C 183.670 259.600,184.884 257.151,184.701 256.968 C 184.614 256.881,184.244 257.438,183.878 258.205 M310.200 258.400 C 310.541 259.060,310.911 259.600,311.021 259.600 C 311.131 259.600,310.941 259.060,310.600 258.400 C 310.259 257.740,309.889 257.200,309.779 257.200 C 309.669 257.200,309.859 257.740,310.200 258.400 M273.615 257.800 C 273.617 258.020,273.986 258.650,274.436 259.200 C 274.979 259.864,275.115 259.931,274.840 259.400 C 274.166 258.095,273.612 257.372,273.615 257.800 M200.200 262.400 C 200.041 264.624,199.997 266.530,200.103 266.636 C 200.208 266.742,200.424 265.007,200.582 262.782 C 200.740 260.556,200.783 258.650,200.679 258.546 C 200.575 258.441,200.359 260.176,200.200 262.400 M204.906 260.000 C 204.899 260.990,205.025 262.970,205.186 264.400 C 205.463 266.866,205.479 266.897,205.496 265.000 C 205.505 263.900,205.379 261.920,205.215 260.600 C 204.946 258.431,204.916 258.373,204.906 260.000 M311.800 261.200 C 312.141 261.860,312.511 262.400,312.621 262.400 C 312.731 262.400,312.541 261.860,312.200 261.200 C 311.859 260.540,311.489 260.000,311.379 260.000 C 311.269 260.000,311.459 260.540,311.800 261.200 M114.988 263.988 C 116.731 265.741,118.211 267.122,118.277 267.057 C 118.426 266.907,112.337 260.800,112.038 260.800 C 111.918 260.800,113.245 262.235,114.988 263.988 M276.600 263.200 C 276.941 263.860,277.311 264.400,277.421 264.400 C 277.531 264.400,277.341 263.860,277.000 263.200 C 276.659 262.540,276.289 262.000,276.179 262.000 C 276.069 262.000,276.259 262.540,276.600 263.200 M167.834 263.780 C 167.497 264.587,166.819 265.821,166.326 266.523 C 165.834 267.225,165.709 267.578,166.048 267.307 C 166.836 266.677,168.949 262.816,168.663 262.530 C 168.544 262.411,168.171 262.973,167.834 263.780 M320.902 264.200 C 320.894 265.300,321.021 267.280,321.185 268.600 L 321.482 271.000 321.498 269.000 C 321.506 267.900,321.379 265.920,321.215 264.600 L 320.918 262.200 320.902 264.200 M93.271 263.302 C 93.562 263.578,94.790 264.590,96.000 265.551 L 98.200 267.298 95.800 265.064 C 94.480 263.836,93.252 262.824,93.071 262.816 C 92.891 262.807,92.981 263.026,93.271 263.302 M180.227 264.200 C 179.640 264.970,179.303 265.598,179.480 265.595 C 179.656 265.592,180.207 264.962,180.704 264.195 C 181.868 262.397,181.600 262.400,180.227 264.200 M314.200 265.600 C 314.541 266.260,314.911 266.800,315.021 266.800 C 315.131 266.800,314.941 266.260,314.600 265.600 C 314.259 264.940,313.889 264.400,313.779 264.400 C 313.669 264.400,313.859 264.940,314.200 265.600 M277.606 264.850 C 277.597 265.205,279.633 268.800,279.842 268.800 C 279.938 268.800,279.660 268.125,279.224 267.300 C 278.278 265.511,277.615 264.506,277.606 264.850 M177.200 267.800 C 176.228 268.790,175.523 269.600,175.633 269.600 C 175.743 269.600,176.628 268.790,177.600 267.800 C 178.572 266.810,179.277 266.000,179.167 266.000 C 179.057 266.000,178.172 266.810,177.200 267.800 M98.400 267.362 C 98.400 267.681,102.437 270.496,102.625 270.309 C 102.728 270.206,101.819 269.462,100.606 268.657 C 99.393 267.851,98.400 267.268,98.400 267.362 M118.940 267.503 C 119.096 267.756,119.791 268.367,120.484 268.860 C 121.177 269.354,121.617 269.550,121.460 269.297 C 121.304 269.044,120.609 268.433,119.916 267.940 C 119.223 267.446,118.783 267.250,118.940 267.503 M163.618 269.734 L 162.237 271.400 163.918 269.819 C 164.843 268.949,165.600 268.184,165.600 268.119 C 165.600 267.659,164.794 268.316,163.618 269.734 M199.400 272.000 C 199.243 273.566,199.200 274.933,199.304 275.037 C 199.408 275.142,199.620 273.944,199.775 272.375 C 199.930 270.806,199.973 269.439,199.871 269.338 C 199.769 269.236,199.557 270.434,199.400 272.000 M205.685 270.200 C 205.677 270.860,205.810 272.300,205.982 273.400 C 206.236 275.035,206.297 275.145,206.317 274.000 C 206.330 273.230,206.197 271.790,206.020 270.800 C 205.788 269.491,205.696 269.328,205.685 270.200 M280.600 270.400 C 280.941 271.060,281.311 271.600,281.421 271.600 C 281.531 271.600,281.341 271.060,281.000 270.400 C 280.659 269.740,280.289 269.200,280.179 269.200 C 280.069 269.200,280.259 269.740,280.600 270.400 M123.200 270.591 C 123.200 270.878,128.430 273.703,128.617 273.517 C 128.713 273.420,127.534 272.684,125.996 271.881 C 124.458 271.078,123.200 270.497,123.200 270.591 M104.400 271.379 C 104.400 271.489,104.940 271.859,105.600 272.200 C 106.260 272.541,106.800 272.731,106.800 272.621 C 106.800 272.511,106.260 272.141,105.600 271.800 C 104.940 271.459,104.400 271.269,104.400 271.379 M160.481 272.172 C 158.623 273.485,158.362 273.861,159.931 272.962 C 160.663 272.543,161.450 271.975,161.680 271.700 C 162.271 270.993,161.993 271.102,160.481 272.172 M321.739 274.500 L 321.806 276.400 302.803 276.496 L 283.800 276.592 302.776 276.700 C 313.213 276.759,321.859 276.671,321.989 276.504 C 322.120 276.337,322.102 275.390,321.949 274.400 L 321.672 272.600 321.739 274.500 M110.000 274.400 C 110.770 274.822,111.580 275.166,111.800 275.166 C 112.020 275.166,111.570 274.822,110.800 274.400 C 110.030 273.978,109.220 273.634,109.000 273.634 C 108.780 273.634,109.230 273.978,110.000 274.400 M167.200 274.800 C 165.990 275.439,165.141 275.971,165.313 275.981 C 165.738 276.007,169.600 274.036,169.600 273.793 C 169.600 273.526,169.655 273.503,167.200 274.800 M283.000 274.800 C 283.341 275.460,283.711 276.000,283.821 276.000 C 283.931 276.000,283.741 275.460,283.400 274.800 C 283.059 274.140,282.689 273.600,282.579 273.600 C 282.469 273.600,282.659 274.140,283.000 274.800 M134.400 275.600 C 134.730 275.813,135.360 275.978,135.800 275.966 L 136.600 275.944 135.800 275.600 C 134.604 275.086,133.605 275.086,134.400 275.600 M152.200 275.600 C 151.181 276.038,152.232 276.038,153.600 275.600 C 154.404 275.343,154.443 275.277,153.800 275.268 C 153.360 275.262,152.640 275.411,152.200 275.600 M138.479 276.460 C 139.720 276.811,147.414 276.822,149.360 276.477 C 150.227 276.323,147.950 276.200,144.239 276.200 C 140.564 276.200,137.972 276.317,138.479 276.460 M200.900 276.694 C 201.945 276.776,203.655 276.776,204.700 276.694 C 205.745 276.612,204.890 276.544,202.800 276.544 C 200.710 276.544,199.855 276.612,200.900 276.694 M117.400 277.200 C 117.840 277.389,118.470 277.544,118.800 277.544 C 119.178 277.544,119.104 277.417,118.600 277.200 C 118.160 277.011,117.530 276.856,117.200 276.856 C 116.822 276.856,116.896 276.983,117.400 277.200 M120.200 278.000 C 120.640 278.189,121.270 278.344,121.600 278.344 C 121.978 278.344,121.904 278.217,121.400 278.000 C 120.960 277.811,120.330 277.656,120.000 277.656 C 119.622 277.656,119.696 277.783,120.200 278.000 M123.600 278.800 C 124.150 278.976,124.960 279.120,125.400 279.120 C 126.033 279.120,125.992 279.054,125.200 278.800 C 124.650 278.624,123.840 278.480,123.400 278.480 C 122.767 278.480,122.808 278.546,123.600 278.800 M156.000 278.800 C 155.176 279.064,155.141 279.126,155.800 279.154 C 156.240 279.173,156.870 279.013,157.200 278.800 C 157.901 278.347,157.414 278.347,156.000 278.800 M128.000 279.600 C 128.550 279.776,129.540 279.917,130.200 279.913 L 131.400 279.905 130.200 279.600 C 129.540 279.432,128.550 279.291,128.000 279.287 L 127.000 279.280 128.000 279.600 M151.400 279.600 L 150.200 279.905 151.400 279.913 C 152.060 279.917,153.050 279.776,153.600 279.600 L 154.600 279.280 153.600 279.287 C 153.050 279.291,152.060 279.432,151.400 279.600 M137.480 280.515 C 139.724 280.702,143.234 280.703,145.280 280.519 C 148.571 280.223,148.101 280.184,141.200 280.180 C 134.010 280.177,133.719 280.203,137.480 280.515 " stroke="none" fill="#949491" fill-rule="evenodd"></path><path id="path4" d="M123.905 121.883 C 124.402 121.979,125.122 121.975,125.505 121.875 C 125.887 121.775,125.480 121.696,124.600 121.701 C 123.720 121.705,123.407 121.787,123.905 121.883 M316.514 155.800 C 316.517 156.900,316.595 157.303,316.687 156.695 C 316.779 156.086,316.777 155.186,316.682 154.695 C 316.587 154.203,316.511 154.700,316.514 155.800 M150.172 195.328 C 149.666 196.649,150.196 203.800,150.800 203.800 C 151.141 203.800,151.423 203.409,151.453 202.894 C 151.497 202.140,151.476 202.123,151.325 202.794 C 150.807 205.102,150.361 203.216,150.475 199.199 C 150.599 194.823,150.560 194.318,150.172 195.328 M220.572 195.328 C 220.066 196.649,220.596 203.800,221.200 203.800 C 221.660 203.800,221.847 203.122,222.000 200.899 C 222.110 199.304,222.065 197.999,221.900 197.999 C 221.735 198.000,221.600 199.260,221.600 200.800 C 221.600 202.400,221.429 203.600,221.200 203.600 C 220.406 203.600,220.698 195.285,221.500 195.076 C 222.156 194.904,222.155 194.890,221.487 194.846 C 221.096 194.821,220.684 195.038,220.572 195.328 M226.734 198.201 C 226.660 199.631,226.735 200.801,226.900 200.801 C 227.065 200.800,227.200 199.630,227.200 198.200 C 227.200 194.843,226.907 194.843,226.734 198.201 M280.867 199.476 C 280.830 201.718,280.935 203.637,281.100 203.740 C 281.265 203.842,281.351 202.638,281.291 201.063 C 281.094 195.918,280.936 195.324,280.867 199.476 M95.583 196.620 C 95.156 197.135,95.195 197.355,95.812 197.920 C 96.515 198.562,96.527 198.561,96.029 197.900 C 95.607 197.340,95.602 197.080,96.000 196.600 C 96.274 196.270,96.408 196.000,96.298 196.000 C 96.188 196.000,95.866 196.279,95.583 196.620 M265.997 200.082 C 265.889 202.217,265.942 203.820,266.116 203.645 C 266.291 203.470,266.379 201.723,266.314 199.764 L 266.194 196.200 265.997 200.082 M151.293 198.000 C 151.293 198.770,151.375 199.085,151.476 198.700 C 151.576 198.315,151.576 197.685,151.476 197.300 C 151.375 196.915,151.293 197.230,151.293 198.000 M128.394 201.482 C 128.287 202.846,128.345 203.817,128.523 203.639 C 128.700 203.460,128.788 202.344,128.717 201.157 L 128.589 199.000 128.394 201.482 M152.900 201.076 C 153.285 201.176,153.915 201.176,154.300 201.076 C 154.685 200.975,154.370 200.893,153.600 200.893 C 152.830 200.893,152.515 200.975,152.900 201.076 M171.800 202.603 C 172.714 202.921,175.129 203.009,174.948 202.716 C 174.841 202.542,173.998 202.414,173.076 202.432 C 172.154 202.449,171.580 202.526,171.800 202.603 M190.100 202.687 C 190.705 202.778,191.695 202.778,192.300 202.687 C 192.905 202.595,192.410 202.520,191.200 202.520 C 189.990 202.520,189.495 202.595,190.100 202.687 M283.700 202.687 C 284.305 202.778,285.295 202.778,285.900 202.687 C 286.505 202.595,286.010 202.520,284.800 202.520 C 283.590 202.520,283.095 202.595,283.700 202.687 M320.493 250.800 C 320.493 251.570,320.575 251.885,320.676 251.500 C 320.776 251.115,320.776 250.485,320.676 250.100 C 320.575 249.715,320.493 250.030,320.493 250.800 " stroke="none" fill="#948680" fill-rule="evenodd"></path></g></svg>